<svg width="512" height="512" viewBox="0 0 512 512" fill="none" xmlns="http://www.w3.org/2000/svg">
<path d="M191.999 42.6667C136.106 42.6667 90.666 88.1067 90.666 144C90.666 198.827 133.546 243.2 189.439 245.12C191.146 244.907 192.853 244.907 194.133 245.12C194.559 245.12 194.773 245.12 195.199 245.12C195.413 245.12 195.413 245.12 195.626 245.12C250.239 243.2 293.119 198.827 293.333 144C293.333 88.1067 247.893 42.6667 191.999 42.6667Z" fill="white"></path>
<path d="M300.372 301.867C240.853 262.187 143.786 262.187 83.8392 301.867C56.7458 320 41.8125 344.533 41.8125 370.773C41.8125 397.013 56.7458 421.333 83.6258 439.253C113.493 459.307 152.746 469.333 191.999 469.333C231.253 469.333 270.506 459.307 300.372 439.253C327.253 421.12 342.186 396.8 342.186 370.347C341.973 344.107 327.253 319.787 300.372 301.867Z" fill="white"></path>
<path d="M426.454 156.587C429.867 197.973 400.427 234.24 359.68 239.147C359.467 239.147 359.467 239.147 359.254 239.147H358.614C357.334 239.147 356.054 239.147 354.987 239.573C334.294 240.64 315.307 234.027 301.014 221.867C322.987 202.24 335.574 172.8 333.014 140.8C331.52 123.52 325.547 107.733 316.587 94.2933C324.694 90.24 334.08 87.68 343.68 86.8267C385.494 83.2 422.827 114.347 426.454 156.587Z" fill="white"></path>
<path d="M469.12 353.92C467.413 374.613 454.186 392.533 432 404.693C410.666 416.427 383.786 421.973 357.12 421.333C372.48 407.467 381.44 390.187 383.146 371.84C385.28 345.387 372.693 320 347.52 299.733C333.226 288.427 316.586 279.467 298.453 272.853C345.6 259.2 404.906 268.373 441.386 297.813C461.013 313.6 471.04 333.44 469.12 353.92Z" fill="white"></path>
</svg>