<svg width="1155" height="175" viewBox="0 0 1155 175" fill="none" xmlns="http://www.w3.org/2000/svg">
<path d="M5.98778 171.071C2.26845 171.071 -0.547142 168.272 0.0903949 165.209L33.2736 5.77703C33.7745 3.37047 36.2766 1.61142 39.1987 1.61142H125.038C141.007 1.61142 154.07 3.34904 164.228 6.82429C174.455 10.2995 181.675 15.209 185.889 21.5527C190.17 27.8964 191.412 35.3709 189.614 43.9763C188.232 50.1545 185.282 55.8087 180.764 60.9388C176.315 66.0138 170.673 70.3164 163.839 73.8468C157.267 77.2225 149.958 79.5833 141.911 80.9291C141.479 81.0013 141.138 81.2804 141.048 81.6404C140.91 82.1934 141.403 82.7151 142.078 82.7435C150.544 83.1004 157.955 84.9064 164.311 88.1615C170.99 91.5265 175.89 96.2153 179.013 102.228C182.135 108.186 182.867 115.136 181.207 123.079C179.271 132.347 174.574 140.594 167.115 147.82C159.657 155.046 149.985 160.728 138.1 164.865C126.215 169.002 112.697 171.071 97.5474 171.071H5.98778ZM64.8136 128.514C64.2113 131.564 67.0214 134.333 70.7197 134.333H90.2786C99.6959 134.333 107.104 132.871 112.503 129.947C117.971 127.024 121.224 122.748 122.263 117.122C123.093 113.15 122.693 109.785 121.063 107.027C119.432 104.269 116.674 102.173 112.789 100.739C108.903 99.3044 104.025 98.5873 98.1567 98.5873H75.8263C72.8845 98.5873 70.3717 100.369 69.8926 102.796L64.8136 128.514ZM78.1411 64.2754C77.5148 67.3344 80.3287 70.1234 84.0413 70.1234H100.282C105.196 70.1234 109.701 69.489 113.799 68.2203C117.897 66.9515 121.28 65.1036 123.949 62.6764C126.617 60.2493 128.297 57.3256 128.988 53.9056C130.027 48.61 128.468 44.5831 124.313 41.825C120.226 39.0668 114.702 37.6878 107.742 37.6878H88.6567C85.7283 37.6878 83.2228 39.4542 82.7288 41.867L78.1411 64.2754Z" fill="#117CB2"></path>
<path d="M246.977 173.388C230.19 173.388 216.276 170.795 205.235 165.61C194.194 160.369 186.436 152.867 181.959 143.104C177.482 133.285 176.695 121.535 179.599 107.855C182.365 94.7259 188.026 83.2521 196.584 73.4331C205.209 63.6142 216.046 55.9742 229.096 50.5131C242.213 45.052 256.892 42.3214 273.134 42.3214C285.008 42.3214 295.411 43.8108 304.342 46.7896C313.342 49.7684 320.666 54.0986 326.314 59.7804C331.962 65.4621 335.765 72.3299 337.722 80.3836C339.747 88.3822 339.722 97.4289 337.647 107.524L336.397 113.901C335.921 116.33 333.406 118.115 330.462 118.115H202.189C198.489 118.115 195.679 115.345 196.283 112.294L199.279 97.1667C199.76 94.7416 202.272 92.9607 205.213 92.9607H283.42C286.375 92.9607 289.013 91.15 288.835 88.6854C288.696 86.7585 288.168 84.9842 287.249 83.3624C285.756 80.5491 283.339 78.3702 279.999 76.8256C276.728 75.2259 272.772 74.426 268.132 74.426C263.492 74.426 259.122 75.2259 255.023 76.8256C250.992 78.4253 247.54 80.6594 244.666 83.5279C241.86 86.3963 239.974 89.7613 239.008 93.6226L232.794 120.101C231.963 124.183 232.26 127.823 233.685 131.023C235.109 134.222 237.593 136.732 241.136 138.553C244.68 140.373 249.25 141.283 254.845 141.283C258.667 141.283 262.285 140.869 265.699 140.042C269.182 139.159 272.256 137.891 274.922 136.236C276.691 135.129 278.232 133.873 279.545 132.467C280.878 131.038 282.83 130.03 284.995 130.03H324.633C328.764 130.03 331.641 133.442 329.83 136.547C326.25 142.686 321.478 148.181 315.514 153.033C307.58 159.487 297.808 164.507 286.197 168.092C274.654 171.623 261.581 173.388 246.977 173.388Z" fill="#117CB2"></path>
<path d="M440.421 43.9763C444.15 43.9763 446.968 46.7887 446.314 49.8577L441.399 72.928C440.888 75.3254 438.391 77.0739 435.478 77.0739H344.072C340.343 77.0739 337.525 74.2615 338.178 71.1925L343.094 48.1222C343.605 45.7247 346.102 43.9763 349.015 43.9763H440.421ZM369.401 17.6946C369.901 15.2869 372.403 13.5265 375.326 13.5265H419.653C423.372 13.5265 426.187 16.3249 425.55 19.3879L402.495 130.195C402.149 131.961 402.213 133.45 402.688 134.664C403.162 135.822 404.115 136.705 405.547 137.311C407.046 137.863 409.025 138.139 411.481 138.139C413.119 138.139 415.133 137.973 417.522 137.642C420.405 137.176 423.053 138.968 423.172 141.419L424.307 164.936C424.419 167.268 422.591 169.363 419.87 169.894C417.84 170.29 415.525 170.71 412.926 171.154C408.146 172.036 402.583 172.615 396.236 172.891C382.996 173.388 372.217 172.257 363.899 169.499C355.649 166.741 349.929 162.438 346.738 156.591C343.615 150.688 343.089 143.324 345.161 134.498L369.401 17.6946Z" fill="#117CB2"></path>
<path d="M455.031 172.639C451.276 172.639 448.622 169.234 449.504 165.549L487.927 4.89318C488.606 2.0566 491.193 0 494.082 0H573.31C588.104 0 600.118 1.77023 609.352 5.31068C618.65 8.85112 625.09 13.8527 628.671 20.3154C632.315 26.7781 633.086 34.3929 630.983 43.1597C629.388 49.4538 626.368 55.2141 621.921 60.4405C617.541 65.6106 612.096 69.9941 605.585 73.5907C599.309 77.0386 592.398 79.4471 584.852 80.8164C584.483 80.8833 584.177 81.1601 584.077 81.5218C583.92 82.0856 584.313 82.6245 584.89 82.6505C592.75 83.005 599.552 84.8461 605.295 88.174C611.311 91.602 615.613 96.3788 618.2 102.504C620.79 108.574 621.115 115.655 619.173 123.747C616.908 133.188 612.137 141.59 604.86 148.952C597.583 156.314 588.334 162.102 577.113 166.317C565.891 170.531 553.263 172.639 539.227 172.639H455.031ZM511.318 128.176C510.476 131.846 513.126 135.211 516.858 135.211H534.361C543.085 135.211 550.023 133.722 555.174 130.744C560.387 127.765 563.619 123.41 564.867 117.678C565.838 113.631 565.638 110.203 564.268 107.394C562.898 104.584 560.449 102.448 556.922 100.987C553.395 99.5259 548.913 98.7953 543.476 98.7953H523.093C520.182 98.7953 517.582 100.881 516.925 103.744L511.318 128.176ZM526.94 62.7246C526.071 66.4053 528.724 69.7974 532.471 69.7974H546.892C551.444 69.7974 555.651 69.1511 559.512 67.8586C563.373 66.566 566.601 64.6834 569.196 62.2107C571.791 59.738 573.496 56.7595 574.311 53.2753C575.542 47.8803 574.303 43.7779 570.594 40.968C566.948 38.1581 561.9 36.7532 555.452 36.7532H538.071C535.174 36.7532 532.583 38.8192 531.912 41.664L526.94 62.7246Z" fill="white"></path>
<path d="M648.358 174.662C639.127 174.662 631.264 173.313 624.767 170.616C618.336 167.862 613.749 163.703 611.006 158.14C608.329 152.52 608.036 145.439 610.127 136.897C611.826 129.816 614.64 123.775 618.569 118.774C622.498 113.772 627.265 109.67 632.87 106.466C638.475 103.263 644.704 100.818 651.557 99.1325C658.476 97.3904 665.742 96.2664 673.356 95.7606C681.604 95.1987 688.311 94.4962 693.476 93.6532C698.641 92.8103 702.526 91.6582 705.132 90.1971C707.674 88.7717 709.278 86.8649 709.945 84.4768C709.978 84.3572 709.996 84.2345 710.003 84.1118C710.008 84.0102 710.022 83.9081 710.043 83.8077C710.73 80.5098 709.843 77.9752 707.382 76.2039C704.948 74.4056 701.454 73.5064 696.902 73.5064C691.971 73.5064 687.654 74.4618 683.95 76.3725C681.607 77.602 679.699 79.2737 678.227 81.3875C676.709 83.5658 674.425 85.3079 671.831 85.3079H635.739C631.82 85.3079 629.148 81.5971 630.941 78.0269C633.508 72.9155 637.05 68.093 641.567 63.5594C648.24 56.8719 656.896 51.5332 667.537 47.5431C678.244 43.4969 690.868 41.4738 705.409 41.4738C715.777 41.4738 724.824 42.5697 732.549 44.7614C740.276 46.8969 746.599 49.9034 751.517 53.7811C756.501 57.6025 759.901 62.0983 761.716 67.2685C763.598 72.3824 763.812 77.946 762.359 83.9592L742.197 167.754C741.515 170.587 738.93 172.639 736.044 172.639H699.315C695.559 172.639 692.905 169.231 693.789 165.544L696.264 155.226C696.364 154.813 696.066 154.431 695.645 154.431C695.438 154.431 695.238 154.526 695.101 154.688C691.112 159.403 686.711 163.223 681.901 166.148C677.066 169.127 671.832 171.29 666.198 172.639C660.627 173.988 654.68 174.662 648.358 174.662ZM672.655 145.327C676.575 145.327 680.47 144.596 684.34 143.135C688.209 141.674 691.576 139.567 694.439 136.813C697.302 134.059 699.215 130.715 700.18 126.782L701.55 120.777C702.036 118.649 700.041 116.874 697.92 117.425C696.256 117.818 694.497 118.212 692.643 118.605C690.852 118.998 688.936 119.364 686.895 119.701C684.918 120.038 682.877 120.375 680.773 120.712C676.571 121.274 673.013 122.202 670.101 123.494C667.191 124.73 664.897 126.276 663.219 128.13C661.544 129.929 660.459 131.952 659.961 134.2C659.207 137.74 659.979 140.494 662.279 142.461C664.644 144.372 668.103 145.327 672.655 145.327Z" fill="white"></path>
<path d="M858.015 43.1597C861.78 43.1597 864.435 46.5824 863.535 50.2756L858.24 72.0105C857.552 74.8352 854.971 76.8783 852.091 76.8783H768.337C764.572 76.8783 761.916 73.4556 762.816 69.7624L768.112 48.0275C768.8 45.2028 771.381 43.1597 774.26 43.1597H858.015ZM794.032 17.035C794.71 14.197 797.297 12.1387 800.188 12.1387H840.327C844.081 12.1387 846.735 15.543 845.853 19.2287L819.13 130.997C818.719 132.795 818.703 134.312 819.081 135.549C819.461 136.729 820.299 137.628 821.595 138.246C822.956 138.808 824.775 139.089 827.051 139.089C828.568 139.089 830.442 138.92 832.673 138.583C835.383 138.106 837.729 140.103 837.712 142.824L837.576 165.567C837.559 168.408 835.539 170.952 832.722 171.542C830.941 171.916 828.937 172.309 826.711 172.723C822.238 173.622 817.055 174.212 811.16 174.493C798.869 174.999 788.94 173.847 781.374 171.037C773.872 168.227 768.791 163.844 766.131 157.887C763.538 151.874 763.426 144.372 765.793 135.38L794.032 17.035Z" fill="white"></path>
<path d="M947.55 43.1597C951.315 43.1597 953.97 46.5824 953.07 50.2755L947.775 72.0105C947.087 74.8352 944.506 76.8783 941.626 76.8783H857.872C854.107 76.8783 851.451 73.4556 852.351 69.7624L857.647 48.0275C858.335 45.2028 860.916 43.1597 863.795 43.1597H947.55ZM883.567 17.035C884.245 14.197 886.832 12.1387 889.723 12.1387H929.862C933.616 12.1387 936.27 15.543 935.388 19.2287L908.665 130.997C908.254 132.795 908.238 134.312 908.616 135.549C908.996 136.729 909.834 137.628 911.13 138.246C912.491 138.808 914.31 139.089 916.586 139.089C918.103 139.089 919.977 138.92 922.208 138.583C924.918 138.106 927.264 140.103 927.247 142.824L927.111 165.567C927.094 168.408 925.074 170.952 922.257 171.542C920.476 171.916 918.472 172.309 916.246 172.723C911.773 173.622 906.59 174.212 900.695 174.493C888.404 174.999 878.475 173.847 870.909 171.037C863.407 168.227 858.326 163.844 855.666 157.887C853.073 151.874 852.961 144.372 855.328 135.38L883.567 17.035Z" fill="white"></path>
<path d="M1015.95 0C1019.71 0 1022.36 3.40458 1021.48 7.09037L983.058 167.746C982.379 170.582 979.792 172.639 976.903 172.639H936.762C933.007 172.639 930.354 169.234 931.235 165.549L969.659 4.89319C970.337 2.05661 972.924 0 975.813 0H1015.95Z" fill="white"></path>
<path d="M1059.16 174.999C1043.61 174.999 1030.85 172.358 1020.88 167.075C1010.92 161.737 1004.11 154.094 1000.46 144.147C996.814 134.144 996.683 122.173 1000.07 108.236C1003.3 94.8615 1009.13 83.1724 1017.55 73.1692C1026.04 63.1661 1036.47 55.3827 1048.84 49.8191C1061.27 44.2556 1075.01 41.4738 1090.05 41.4738C1101.06 41.4738 1110.62 42.9911 1118.74 46.0258C1126.93 49.0605 1133.49 53.472 1138.44 59.2603C1143.38 65.0487 1146.55 72.0453 1147.96 80.2501C1149.43 88.3988 1148.94 97.6152 1146.51 107.899L1145.18 113.733C1144.52 116.599 1141.92 118.689 1139.01 118.689H1021.09C1017.36 118.689 1014.71 115.321 1015.55 111.651L1018.69 98.0084C1019.35 95.1476 1021.95 93.0632 1024.86 93.0632H1096.7C1099.63 93.0632 1102.39 90.9277 1102.22 88.025C1102.12 86.3237 1101.72 84.7437 1101.05 83.2848C1099.8 80.4187 1097.68 78.1989 1094.66 76.6254C1091.71 74.9956 1088.09 74.1808 1083.79 74.1808C1079.49 74.1808 1075.4 74.9956 1071.52 76.6254C1067.71 78.2551 1064.39 80.5311 1061.59 83.4534C1058.84 86.3756 1056.92 89.8037 1055.83 93.7375L1048.73 120.712C1047.75 124.871 1047.84 128.58 1049 131.839C1050.16 135.099 1052.33 137.656 1055.52 139.51C1058.71 141.365 1062.9 142.292 1068.08 142.292C1071.62 142.292 1074.99 141.871 1078.2 141.028C1081.47 140.129 1084.38 138.836 1086.94 137.15C1088.55 136.081 1089.97 134.875 1091.21 133.53C1092.66 131.958 1094.61 130.828 1096.7 130.828H1132.44C1136.64 130.828 1139.3 135.031 1137.06 138.692C1133.54 144.454 1129.08 149.644 1123.69 154.262C1116.01 160.837 1106.7 165.951 1095.76 169.604C1084.89 173.201 1072.69 174.999 1059.16 174.999Z" fill="white"></path>
</svg>