<svg width="918" height="908" viewBox="0 0 918 908" fill="none" xmlns="http://www.w3.org/2000/svg">
<path d="M839.413 755.956C840.738 759.869 836.496 764.755 833.446 766.83C829.668 764.804 836.096 756.82 838.197 755.106L839.413 755.956Z" fill="white"></path>
<path d="M449.718 729.557C452.231 732.047 456.422 741.795 455.124 745.283C451.593 744.023 447.41 732.497 447.712 728.994L449.718 729.557Z" fill="white"></path>
<path fill-rule="evenodd" clip-rule="evenodd" d="M87.9288 689.514C93.4244 685.868 114.465 669.748 119.997 671.986C136.599 678.715 100.17 695.503 95.0623 699.159L95.0576 699.158C85.7755 705.768 77.4305 698.387 87.9248 689.514C87.9629 689.522 88.0015 689.527 88.0401 689.533C88.0028 689.527 87.9656 689.521 87.9288 689.514ZM92.4385 698.718C93.2387 698.943 93.5948 699.017 94.1273 699.074C93.5966 699.017 93.2402 698.944 92.4417 698.719L91.3349 696.476L91.3318 696.475L92.4385 698.718ZM97.3387 688.284C97.8347 688.407 98.2669 688.647 98.6116 689.05C95.6915 690.399 90.8351 689.934 89.1882 692.261C89.2356 697.523 86.8408 695.473 86.8443 698.551C87.482 698.858 87.6341 698.989 87.8079 699.001C87.6355 698.988 87.481 698.856 86.8475 698.551C86.8441 695.473 89.2388 697.523 89.1914 692.261C90.8383 689.934 95.6947 690.399 98.6148 689.05C98.2693 688.646 97.836 688.407 97.3387 688.284ZM88.1522 689.549C88.2877 689.567 88.4261 689.58 88.5672 689.586H88.5704C88.4282 689.58 88.2887 689.567 88.1522 689.549Z" fill="white"></path>
<path d="M804.3 617.8C810.565 617.227 836.125 619.712 825.165 630.981L824.621 631.016C819.083 631.347 812.789 629.692 807.425 628.239C802.001 626.772 798.851 621.94 804.3 617.8Z" fill="white"></path>
<path d="M85.4704 597.315C90.108 597.206 100.451 601.262 100.093 606.662C95.8404 606.741 90.7121 604.147 87.4064 601.529C85.5662 600.067 85.6992 599.291 85.4704 597.315Z" fill="white"></path>
<path d="M684.044 458.783C690.338 459.999 696.796 473.817 696.331 479.685C690.136 480 683.965 464.001 684.044 458.783Z" fill="white"></path>
<path d="M774.251 107.959L774.409 107.995L774.493 108.23C766.278 111.494 755.913 114.397 747.315 117.304C711.645 129.366 675.21 138.411 638.718 147.537L638.373 147.457L638.334 147.188C659.79 140.401 681.081 132.833 702.748 126.673C726.444 119.937 750.562 114.65 774.251 107.959Z" fill="white"></path>
<path d="M656.495 167.838C636.719 173.968 615.928 179.081 595.953 184.756C591.086 186.138 567.839 192.96 564.215 192.955C568.111 190.526 571.993 189.682 576.095 187.904C604.702 175.517 633.785 164.555 662.73 153.061L656.495 167.838Z" fill="white"></path>
<path d="M807.889 110.508C809.167 116.631 779.694 203.452 776.813 215.477C774.628 224.596 763.385 262.748 758.046 270.14C752.349 278.028 728.692 300.925 720.702 308.71C700.05 328.816 679.565 349.094 659.25 369.541C566.878 461.408 475.878 554.644 386.28 649.219C399.08 665.502 423.088 687.528 433.803 703.167C430.912 706.306 427.811 709.419 424.739 712.391C407.339 729.215 390.791 747.277 373.122 763.796C366.767 758.605 357.117 748.424 351.066 742.35C336 727.295 321.138 712.038 306.483 696.581C301.108 698.177 295.982 698.733 290.445 699.501C283.631 704.709 227.427 759.216 223.533 765.604C216.815 776.624 218.011 790.722 208.534 800.747C198.141 811.741 180.511 816.764 165.769 816.958C148.944 817.126 132.741 810.639 120.678 798.916C96.5605 775.928 95.5476 734.365 119.192 710.557C128.244 701.441 140.961 699.312 153.017 696.545C175.583 675.048 197.247 652.23 218.988 629.875L222.951 613.445C218.425 608.41 212.523 603.648 207.883 598.761C191.716 581.735 170.614 563.977 155.158 546.68C160.691 539.604 171.966 528.983 178.572 522.324C190.389 510.413 202.481 497.621 214.776 486.335C233.037 501.668 249.736 517.23 268.84 532.807C276.833 526.499 292.31 510.673 300.102 503.17L355.781 449.807C373.962 432.258 392.275 415.406 410.355 397.628L569.777 237.955L620.464 186.833C634.613 172.516 644.723 158.43 664.448 152.434C709.221 138.822 754.041 125.287 798.856 111.814C801.741 110.947 804.883 110.57 807.889 110.508Z" fill="white"></path>
<path d="M783.806 133.794C785.356 138.641 751.163 239.739 746.786 255.205C745.184 260.864 709.386 295.376 701.414 303.352L618.832 386.052C531.539 472.077 445.989 559.853 362.233 649.326C377.721 666.913 393.393 685.85 409.711 702.571L373.116 739.328C350.678 716.879 329.579 693.227 306.964 671.12C303.488 674.491 297.818 680.322 293.556 682.15C290.313 682.014 290.135 680.65 286.726 678.371C284.922 678.657 213.563 749.611 205.166 758.545C203.466 771.42 201.215 777.892 195.945 789.308C174.614 802.257 153.566 803.24 134.125 786.669C127.89 779.948 120.762 768.877 120.281 759.719C118.454 724.867 132.864 717.754 161.101 713.881L241.141 633.712L236.287 626.712C239.896 621.915 244.278 616.942 248.177 612.322C225.776 590.056 202.653 568.956 180.085 546.433C191.93 534.701 203.763 522.451 215.484 510.559C233.298 525.747 251.346 542.156 269.413 557.618C316.327 511.66 364.942 466.335 412.176 420.546C439.796 393.387 467.219 366.029 494.441 338.472L618.734 213.358C629.836 202.287 648.234 182.41 659.931 173.097C663.659 170.13 696.249 160.651 703.152 158.528L783.806 133.794Z" fill="#171C1F"></path>
<path d="M747.202 167.985L749.311 167.326L750.421 167.951C750.651 172.287 729.799 237.702 726.905 243.331C726.619 245.943 725.123 247.639 723.312 249.499C706.006 267.28 688.277 284.855 670.669 302.328L598.896 374.272L526.933 446.749C512.877 461.027 496.969 477.984 482.559 491.552L390.183 587.879C376.829 601.9 363.561 616.58 350.036 630.363C344.266 621.916 338.419 614.739 331.934 606.846C330.535 605.145 323.307 596.61 322.598 595.222C313.347 587.471 304.552 580.989 294.854 573.836L288.462 569.347C291.751 566.065 295.138 562.898 298.567 559.764C318.958 541.126 338.589 521.736 358.477 502.561C416.194 447.506 473.202 391.715 529.49 335.199C557.357 307.28 586.258 278.939 613.674 250.665C626.155 237.667 638.753 224.783 651.468 212.014C656.741 206.686 665.389 197.472 671.646 192.761C673.46 191.395 676.875 190.08 679.049 189.46C701.968 182.923 724.45 175.037 747.202 167.985Z" fill="white"></path>
<path d="M217.068 533.754C235.548 552.162 258.235 569.604 278.276 586.415C286.008 593.668 297.758 600.497 304.865 608.122C326.083 630.886 346.555 655.27 366.387 679.266C371.11 684.981 383.358 696.438 385.626 701.894C381.023 706.414 376.464 710.979 371.95 715.588C352.324 694.156 332.218 673.168 311.649 652.64C304.185 645.268 284.849 628.102 279.388 621.042C257.18 600.015 233.426 574.993 211.361 553.168C208.207 550.005 207.161 549.873 206.66 546.189C207.985 542.011 213.637 537.244 217.068 533.754Z" fill="white"></path>
<path d="M143.884 734.312C150.12 732.132 155.027 731.209 161.417 730.108C169.13 740.295 179.537 747.844 187.538 757.675C188.652 759.038 187.951 760.427 187.58 762.281C186.571 778.22 178.528 782.921 162.912 782.478C155.037 782.253 147.83 777.848 142.886 771.785C134.055 758.605 136.097 747.111 143.884 734.312Z" fill="white"></path>
<path d="M205.282 693.394L223.068 675.692L223.104 684.066C224.317 693.12 225.951 703.522 226.761 712.523L209.273 730.004C208.605 721.991 207.997 714.197 206.939 706.225C206.122 702.515 205.706 697.287 205.282 693.394Z" fill="white"></path>
<path d="M243.189 655.399C243.557 658.285 243.566 660.622 243.626 663.507C245.551 671.273 246.631 683.143 247.889 691.553L231.086 708.294C230.404 701.025 229.171 691.183 228.895 684.095L227.607 671.067L243.189 655.399Z" fill="white"></path>
<path d="M200.725 697.946C200.959 700.406 201.091 703.058 201.269 705.54C202.235 711.873 204.387 727.527 204.533 733.729L197.012 741.121C193.213 737.458 179.769 725.166 177.04 721.748L200.725 697.946Z" fill="white"></path>
<path d="M256.328 644.662C260.498 650.042 270.162 659.163 275.318 664.342C267.757 671.717 260.242 679.139 252.773 686.605C252.047 679.779 251.422 672.691 250.283 665.937C249.129 661.088 248.674 655.469 248.126 650.459C250.911 647.481 252.577 644.945 256.328 644.662Z" fill="white"></path>
<path d="M109.057 109.822C112.702 109.163 122.277 112.23 126.469 113.609C172.882 128.862 223.051 140.401 268.164 158.241C270.556 159.186 297.163 186.629 300.961 190.428L370.032 259.657C433.176 323.976 497.404 387.221 562.7 449.353C590.114 475.547 620.489 506.882 649.345 531.129C657.439 524.129 697.157 487.041 702.095 485.256C705.467 486.73 716.661 497.37 718.804 500.248C724.149 507.446 760.496 538.788 761.383 545.189C757.158 552.962 703.943 604.233 695.153 612.063C696.56 615.775 698.39 626.519 700.463 628.886C719.213 650.279 740.261 669.916 760.299 690.134C771.365 701.302 788.923 697.472 800.487 710.155C823.044 734.903 821.693 773.639 798.204 797.298C788.674 806.444 776.653 812.556 763.66 814.884C747.628 817.686 730.183 814.082 716.795 804.67C704.129 795.767 699.169 781.057 696.689 766.363C689.25 757.274 677.087 745.721 668.568 737.327C655.394 724.243 642.108 711.273 628.714 698.421L611.732 695.642C596.756 712.459 579.95 728.294 564.37 744.597C558.382 750.856 551.981 757.291 545.412 762.912C526.408 745.625 502.807 722.33 485.841 703.15C499.359 686.06 517.685 667.418 532.195 649.355C527.817 643.339 516.517 632.05 510.864 626.058L459.555 572.581C385.639 496.009 310.863 420.273 235.247 345.379L187.359 297.605C157.064 267.49 158.437 272.14 145.873 231.104L130.73 181.795L116.964 137.762C114.519 129.916 110.356 117.55 109.057 109.822Z" fill="white"></path>
<path d="M133.519 133.66C143.22 132.299 232.163 165.429 248.102 167.867C259.888 169.665 284.21 197.31 294.689 207.856L364.444 277.95C432.885 347.352 502.297 415.791 572.657 483.248L621.357 529.688C630.37 538.306 639.19 547.465 648.538 555.66C666.803 540.494 684.577 524.746 701.836 508.438C714.068 520.173 726.41 532.864 738.431 544.886C716.23 567.325 692.606 588.577 670.303 611.105C673.421 614.597 676.726 618.071 679.709 621.686C684.256 627.194 677.636 627.974 677.54 632.623C685.945 641.978 697.176 652.643 706.181 661.637L757.311 712.643C770.174 714.253 776.845 715.919 788.336 721.422C802.363 742.804 802.905 765.095 785.432 784.477C778.116 791.104 770.349 795.323 760.503 797.08C746.318 799.606 724.456 794.567 718.688 779.681C715.982 772.682 714.609 764.259 713.366 756.847L633.132 676.861L625.709 681.979C620.009 677.68 616.862 674.805 611.693 669.862C589.498 692.679 567.963 715.569 545.491 738.132L509.847 702.465C526.152 684.886 541.821 666.729 556.831 648.024C526.176 617.584 493.827 582.332 463.682 550.91C423.293 508.656 382.275 467.006 340.639 425.98L217.146 302.781C204.492 290.082 184.016 271.436 173.302 257.999C170.594 254.602 159.683 218.518 157.572 211.561C149.785 185.911 140.845 159.414 133.519 133.66Z" fill="#171C1F"></path>
<path d="M167.728 169.968L166.889 167.502L167.63 166.583C173.79 167.104 236.767 187.193 243.909 190.55C249.46 193.163 322.352 266.055 328.887 274.15C348.493 292.795 367.377 312.539 386.64 331.564C391.606 336.473 397.609 342.148 402.158 347.387C436.066 379.002 468.534 413.413 501.943 445.613C530.636 472.894 559.158 500.354 587.508 527.992C601.108 541.004 616.217 554.418 629.32 567.702C617.3 576.957 606.484 585.63 594.736 595.077C587.534 604.145 580.525 613.36 573.707 622.722C572.203 625.071 571.227 627.213 568.822 628.434L567.051 627.85C548.953 607.82 529.824 588.894 511.291 569.277C445.732 499.391 378.729 430.874 310.321 363.776L231.43 285.044C220.695 274.342 201.458 257.579 193.337 245.741C188.803 239.139 171.35 181.036 167.728 169.968Z" fill="white"></path>
<path d="M533.062 700.885C559.98 672.983 583.388 641.516 608.286 611.978C614.993 604.02 633.256 590.128 642.051 582.53L678.666 551.355C683.132 547.506 697.464 533.197 702.06 532.618C706.367 537.32 710.408 541.237 714.997 545.645C692.055 566.473 669.877 588.878 647.791 610.629C639.429 618.864 623.994 636.781 615.553 643.322C610.803 648.797 599.729 659.122 594.097 664.721L553.472 705.522L545.742 713.35L533.062 700.885Z" fill="white"></path>
<path d="M533.062 700.885C559.98 672.983 583.388 641.516 608.286 611.978C614.993 604.02 633.256 590.128 642.051 582.53L678.666 551.355C683.132 547.506 697.464 533.197 702.06 532.618C699.578 540.428 634.561 597.038 624.044 607.388C606.806 620.814 580.063 655.138 564.854 672.219C558.979 678.817 546.977 692.226 541.629 699.023C544.97 700.997 550.004 704.2 553.472 705.522L545.742 713.35L533.062 700.885Z" fill="white"></path>
<path d="M729 756.191C737.536 751.576 748.586 736.911 756.641 730.482C758.195 729.245 760.183 730.239 762.573 730.776C766.81 730.256 771.629 732.092 775.572 733.572C783.752 748.011 785.435 761.705 772.267 773.766C761.918 780.635 749.766 783.51 738.366 776.765C731.034 772.427 730.571 763.885 729 756.191Z" fill="white"></path>
<path d="M674.449 695.164C678.55 694.882 679.511 694.825 683.567 695.492C689.013 693.752 705.367 692.402 712.005 691.741C717.32 697.09 723.179 702.768 728.268 708.264L720.772 709.716L717.633 710.821C714.334 711.475 711.994 710.787 707.735 711.507L704.826 711.507L703.537 711.507C700.04 712.055 696.198 712.292 692.645 712.58L674.449 695.164Z" fill="white"></path>
<path d="M654.25 674.902C657.278 674.609 660.057 674.744 663.085 674.823C668.299 673.202 683.772 671.185 690.354 670.016C695.539 675.1 702.465 681.529 707.228 686.799C703.923 687.144 684.541 689.342 682.603 689.155C679.157 689.709 673.847 690.014 670.248 690.336L654.25 674.902Z" fill="white"></path>
<path d="M721.178 740.623C717.083 736.674 700.548 721.145 698.638 717.733C700.734 716.496 701.903 716.885 704.587 716.812L705.886 716.993C710.146 716.123 717.568 715.343 720.868 714.552L732.889 713.264L740.368 720.676C737.131 724.116 724.093 738.522 721.178 740.623Z" fill="white"></path>
<path d="M644.988 660.484C649.954 656.75 658.976 647.39 663.766 642.678L685.848 665.134C682.306 665.58 667.466 667.913 665.269 667.591C660.162 668.845 654.812 669.529 649.598 670.303L646.886 667.715C643.435 664.456 642.847 664.546 644.988 660.484Z" fill="white"></path>
<path d="M594.039 414.691C605.967 409.201 678.537 382.817 690.195 377.927C697.693 374.782 768.659 343.967 769.935 344.403C769.12 345.146 760.37 349.624 758.61 350.597L737.476 362.445L703.223 381.512C695.262 385.87 681.166 392.944 674.626 398.399C664.233 407.064 652.974 419.651 643.421 429.347C660.255 420.008 677.364 411.178 694.728 402.868C699.522 400.52 708.398 395.478 712.587 393.893C689.419 410.018 665.56 425.347 641.965 440.85C638.711 442.987 635.447 445.128 632.109 447.127L615.816 448.112C608.801 451.254 594.55 456.669 587.111 458.934C607.046 443.752 626.429 426.462 646.24 411.032C649.519 408.477 653.28 405.365 656.313 402.534C642.398 407.63 594.213 421.875 580.219 425.434L594.039 414.691Z" fill="white"></path>
</svg>