<svg width="800" height="800" viewBox="0 0 800 800" fill="none" xmlns="http://www.w3.org/2000/svg">
<path d="M375.557 187.782C376.756 188.869 384.538 202.294 386.323 205.12C389.917 210.752 393.601 216.325 397.371 221.838C399.793 221.321 402.176 220.7 404.527 219.932C418.492 215.378 432.41 211.934 446.734 208.684C437.582 219.263 425.281 236.583 417.144 248.186C427.14 261.099 438.422 273.387 449.777 285.112C446.426 284.184 442.047 283.47 438.558 282.737C431.054 281.163 423.574 279.486 416.113 277.706C412.824 277.109 403.25 274.38 399.965 273.409C395.441 279.582 390.577 288.09 386.497 294.634C383.464 299.499 379.562 305.97 377.113 311.041C374.336 299.492 371.66 287.92 370.62 276.067C370.268 272.054 369.86 268.047 369.395 264.046C355.327 259.607 343.826 254.5 330.413 248.986C343.885 242.818 354.933 237.771 368.915 232.402C370.189 213.749 371.498 205.623 375.557 187.782Z" fill="white"></path>
<path d="M509.281 244.009C511.258 245.896 513.078 275.025 513.332 279.371C519.809 277.496 526.402 271.723 530.254 266.319C529.348 269.835 528.809 273.244 527.754 276.871C525.805 283.586 522.887 289.667 519.723 295.863C518.156 298.927 514.57 302.468 513.434 305.665C512.617 307.957 512.105 311.92 511.688 314.407C510.391 322.078 508.668 327.519 504.633 334.106C501.988 329.14 499.023 326.946 494.609 323.557C486.48 328.72 480.484 332.172 471.367 335.558C466.906 337.303 463.113 337.776 458.582 339.261C464.34 332.289 472.168 319.574 476.762 311.896C470.105 306.539 463.863 300.686 458.09 294.386C455.176 291.249 452.594 287.697 449.426 284.918C462.457 287.02 478.039 286.606 491.137 285.287C497.969 272.347 503.664 257.524 509.281 244.009Z" fill="white"></path>
<path d="M523.496 525.519C539.649 524.137 553.848 536.137 555.176 552.293C556.5 568.449 544.446 582.605 528.285 583.871C512.211 585.133 498.141 573.152 496.824 557.082C495.504 541.012 507.43 526.898 523.496 525.519ZM527.188 575.945C531.305 575.648 534.688 574.684 537.371 571.336C545.93 560.676 541.305 534.086 525.106 533.762C521.41 533.879 517.532 534.363 515.059 537.477C505.953 548.934 510.77 574.199 527.188 575.945Z" fill="white"></path>
<path d="M315.384 310.71C317.034 311.419 326.861 319.962 329.128 321.768C334.651 326.252 340.382 330.472 346.304 334.414C358.958 325.715 365.455 321.709 377.272 310.791C374.472 321.184 372.669 339.445 371.624 350.343C380.095 355.487 391.786 360.986 400.914 364.945C395.348 364.73 384.705 365.949 377.93 366.021L371.531 366.041C372.166 373.654 372.739 378.772 375.97 385.667C363.277 381.487 352.854 374.618 344.668 363.876C341.282 362.935 337.62 362.478 334.239 361.561C321.097 358 312.598 354.455 302.494 345.629C313.005 347.24 319.948 345.607 329.76 342.624C327.584 338.167 325.004 333.786 322.905 329.247C320.102 323.185 317.756 316.948 315.384 310.71Z" fill="white"></path>
<path d="M476.113 164.145C477.613 158.79 478.02 155.63 477.742 149.998C482.527 155.582 486.621 159.704 490.523 166.123C492.672 169.657 494.684 173.834 496.738 177.139C497.492 178.357 502.129 181.987 503.684 183.598C512.246 192.451 518.031 200.428 522.965 211.71C517.363 207.407 512.797 206.252 505.953 204.657C508.758 219.56 509.035 228.474 509.668 243.352C504.832 233.096 493.059 212.908 485.75 203.688C472.152 204.06 460.094 205.332 446.777 208.531C453.402 201.426 462.832 189.716 467.711 181.281C457.793 170.939 449.34 162.9 437.66 154.395L437.738 152.367C453.387 154.632 461.68 157.708 476.113 164.145Z" fill="white"></path>
<path d="M341.331 137.254C353.56 133.975 363.831 135.058 376.034 134.637C378.553 134.55 386.212 131.319 389.379 130.565C401.809 127.608 413.469 126.603 426.231 127.077C416.559 129.641 410.606 133.433 402.797 139.763C412.199 142.532 423.153 146.386 431.688 151.074L432.785 151.941C424.215 150.743 398.449 153.567 389.403 154.591C383.218 163.559 377.463 177.009 375.833 187.782C367.168 178.493 362.608 172.238 356.184 161.454C346.784 163.879 330.921 169.008 322.499 173.936C333.231 161.512 336.309 158.3 349.626 148.634C347.172 144.618 345.019 140.006 341.331 137.254Z" fill="white"></path>
<path d="M318.56 526.191C325.32 526.375 330.275 526.355 336.976 526.027C342.4 538.02 347.504 553.664 352.606 566.359C354.94 558.859 357.518 551.559 360.058 544.133C362.134 538.066 363.923 532 366.251 526.004C372.427 526.371 378.163 526.039 383.92 526.363L384.363 527C383.765 528.09 382.614 528.582 381.469 529.305C380.224 531.707 381.811 545.133 382.06 548.375L384.416 579.551C385.955 580.465 387.659 580.738 388.233 582.516C386.825 583.566 371.26 582.953 367.342 583.352L366.792 583.406L366.298 583.008L366.226 582.129C367.47 580.699 368.332 581.258 370.52 579.832C372.536 576.637 370.588 559.367 370.257 554.629L369.096 540.77C363.97 555.086 359.236 569.68 354.166 584.09L346.686 583.996C344.975 578.359 342.684 573.016 340.571 567.516L330.173 540.418C329.209 551.551 329.433 564.223 329.139 575.477C328.97 581.945 331.676 579.414 334.673 582.332L334.619 582.848C333.365 583.359 318.071 583.176 315.837 583.203L315.508 582.449C316.108 581.305 318.035 580.703 319.342 580.133C321.253 577.715 321.048 564.727 321.29 560.738C321.856 551.422 322.375 541.898 322.59 532.566C322.623 531.152 322.493 530.027 321.648 528.91C319.455 528.172 319.192 528.418 318.56 526.191Z" fill="white"></path>
<path d="M279.26 256.724C284.975 243.175 285.269 239.736 294.045 226.065C294.046 232.286 295.636 245.71 296.632 252.11C309.497 250.314 317.758 249.514 330.723 248.951C323.113 254.312 307.684 269.773 302.312 277.543C305.595 289.736 307.8 293.695 312.423 304.907C311.5 305.452 310.498 306.139 309.514 306.467C302.373 302.146 297.629 298.736 290.872 293.752C287.227 300.025 284.789 306.33 282.602 313.239L281.803 311.97C281.192 312.202 280.804 312.339 280.196 312.533C276.187 300.31 275.815 291.263 275.509 278.82C271.479 273.479 269.247 269.969 267.357 263.541C271.268 260.096 274.506 258.651 279.26 256.724Z" fill="white"></path>
<path d="M180.79 526.191C185.703 526.098 197.001 526.086 201.68 526.344L202.153 526.957C201.64 528.102 200.128 528.656 198.748 529.582C197.506 532 198.024 545.539 198.033 549.109L219.24 549.199C219.35 543.57 219.909 536.43 218.912 530.879C218.442 528.262 216.104 528.922 215.27 526.965L215.61 526.363C216.839 526.187 235.394 526.285 236.049 526.52C235.722 527.246 235.899 527.047 235.393 527.543C234.282 528.637 233.162 529.664 232.387 531.043C232.16 531.449 232.028 531.863 231.994 532.328C231.697 536.383 232.056 578.379 232.425 579.285C232.766 580.121 233.266 580.316 234.036 580.684C234.129 580.73 234.903 581.082 235.008 581.141C235.885 581.644 235.971 581.621 236.227 582.598L235.731 583.219L233.689 583.324C228.257 583 219.735 583.668 215.693 583.203L215.308 582.449L215.573 581.691L216.865 580.957C219.01 579.758 219.266 579.305 219.319 576.687C219.447 570.383 219.344 564.016 219.298 557.707C213.083 557.621 203.98 558.035 198.096 557.516C198.03 563.836 197.622 572.75 198.373 579.031C198.565 580.637 202.517 582.047 204.233 582.918C202.419 583.32 183.188 583.594 181.298 583.359L181.008 582.344C181.537 581.371 183.124 580.832 184.219 580.32C184.756 579.691 185.164 579.019 185.161 578.152C185.101 562.973 185.39 547.766 185.143 532.586C185.118 531.035 185.004 530.219 184.098 529.031C181.887 528.227 181.385 528.469 180.79 526.191Z" fill="white"></path>
<path d="M610.652 564.832C610.328 555.973 611.141 539.215 610.113 530.039C609.957 528.652 606.84 528.781 605.211 527.125L605.348 526.363C607.109 526.035 621.211 526.016 622.125 526.586C621.656 528.051 620.887 527.785 619.695 529.043C619.063 529.645 618.281 530.426 618.27 531.379C618.035 548.73 618.711 566.223 618.141 583.559C615.859 583.695 613.578 583.688 611.289 583.711C610.199 583.617 609.082 583.57 608.43 582.625C605.258 578.055 602.375 573.281 599.375 568.598C592.855 558.344 586.273 548.133 579.625 537.965C579.77 544.652 578.961 575.004 580.305 579.254C581.832 581.129 584.32 581.02 585.059 582.766C584.043 583.273 570.367 583.07 568.352 583.074L567.992 582.453C568.816 580.945 570.879 581.051 571.574 579.563C572.32 577.969 572.504 533.543 571.711 530.426C571.117 528.09 568.641 528.625 567.586 526.266C570.621 525.742 581.176 526.461 586.43 525.992C587.492 527.934 588.82 530.078 590.031 531.941C597.004 542.672 603.309 554.395 610.652 564.832Z" fill="white"></path>
<path d="M660.805 524.391C667.504 524.144 673.789 525 680.066 527.348C680.106 529.859 680.766 542.344 680.297 543.828C677.836 543.582 676.762 538.453 674.691 536.375C669.598 531.262 657.031 529.949 651.602 535.098C649.176 537.398 649.578 543.137 652.891 544.84C661.457 549.238 672.484 549.199 680.199 555.535C686.504 560.758 686.41 572.129 680.691 577.75C674.258 584.203 665.426 585.5 656.727 585.547C650.168 585.293 644.852 584.16 638.629 582.273C638.582 579.668 637.703 564.828 638.949 563.594C642.238 565.672 642.75 578.965 658.031 578.141C674.922 577.23 675.75 564.398 659.356 561.133C650.871 559.441 636.859 554.477 636.719 544.332C635.738 528.777 648.332 525.34 660.805 524.391Z" fill="white"></path>
<path d="M144.587 520.844C152.485 520.402 157.786 520.531 165.236 522.988C165.217 528.297 166.123 537.168 165.682 542.066C165.408 542.16 165.135 542.254 164.861 542.352C161.868 538.785 160.379 532.832 155.278 531.187C138.185 525.059 125.537 542.266 129.357 558.004C133.33 574.371 146.928 580.289 162.015 573.789L169.107 569.824C168.571 572.895 168.367 576.824 167.837 580.23C163.64 583.41 157.797 585.719 152.61 586.48C143.772 587.828 134.762 585.582 127.589 580.246C120.821 575.152 116.598 567.277 115.431 558.945C114.104 549.82 116.439 540.543 121.927 533.133C127.641 525.57 135.408 522.062 144.587 520.844Z" fill="white"></path>
<path d="M266.702 526.18C273.104 526.281 277.179 526.395 283.498 525.965C289.278 543.082 294.415 561.004 300.413 578.078C301.092 580.012 304.918 580.691 304.32 582.973C301.406 583.379 282.603 583.402 280.04 582.934C282.439 581.356 284.038 581.352 286.298 579.586C287.458 577.359 284.227 566.332 282.451 565.16L265.947 565.121C264.522 569.406 261.937 574.277 261.644 578.719C261.936 579.844 264.258 581.383 265.394 582.375L265.377 582.949C264.677 583.145 248.819 583.152 247.491 583.008C248.048 581.211 251.904 578.52 252.537 576.496C257.37 561.043 265.717 545.445 270.49 530.117L270.679 529.5C268.388 528.52 267.414 528.566 266.702 526.18ZM268.693 558.492L273.349 558.453C275.799 558.465 278.368 558.441 280.805 558.504C280.118 556.137 276.383 539.707 275.54 538.941C273.386 545.5 271.103 552.02 268.693 558.492Z" fill="white"></path>
<path d="M402.125 526.348C411.48 525.945 421.754 525.898 430.926 526.336C461.394 527.789 451.961 569.047 424.148 560.406C422.855 560.004 420.07 558.66 419.566 557.492C421.297 556.125 431.515 557.621 434.351 552.934C437.953 546.98 438.164 540.512 432.855 535.879C427.593 533.383 424.59 533.918 418.957 534.492C418.465 546.586 418.949 564.91 418.875 577.512C418.859 580.004 423.664 580.492 424.32 582.57L423.894 583.035C422.984 583.238 402.66 583.18 402.23 583.07L401.914 582.367C402.152 581.793 402.328 581.621 402.836 581.246C403.543 580.73 404.582 580.168 405.039 579.398C406.094 577.605 406.25 532.129 405.269 530.18C404.761 529.18 403.687 528.957 402.695 528.613L402.234 528.461C401.644 527.336 401.859 527.937 402.125 526.348Z" fill="white"></path>
<path d="M394.27 420.496L394.953 420.48C436.152 419.566 471.668 435.711 501.031 463.973L497.023 468.254C496.922 468.137 496.824 468.02 496.727 467.902L496.219 467.332C481.891 450.906 456.23 437.406 435.578 431.332C424.781 428.156 412.641 426.754 401.422 426.141C398.668 426.094 395.914 426.102 393.164 426.168C357.607 427.246 321.626 442.211 297.15 468.227C295.922 466.707 294.666 465.496 293.293 464.113C322.6 435.91 353.46 421.801 394.27 420.496Z" fill="white"></path>
<path d="M458.441 339.75L458.859 340.27C459.68 348.179 459.574 355.401 457.996 363.251C469.344 361.21 480.215 357.073 490.047 351.053C472.25 368.627 445.781 381.868 421.109 385.816C414.043 387.042 405.086 387.399 397.773 387.856C407.699 384.888 410.227 383.382 419.438 378.615C410.098 373.309 407.672 370.002 400.039 364.566C409.391 366.243 426.336 366.872 435.699 365.985C445.246 356.679 450.457 350.384 458.441 339.75Z" fill="white"></path>
<path d="M316.959 152.632C311.654 159.879 307.272 167.759 303.914 176.088C310.836 174.676 315.468 173.987 322.674 173.735C315.525 179.057 303.363 188.069 298.315 194.843C295.228 198.984 293.866 221.116 293.999 226.65C289.491 219.99 287.574 216.805 283.845 209.571C280.42 213.766 274.475 221.758 271.974 226.537C271.061 225.855 271.126 225.8 270.568 224.775C275.974 199.358 295.423 167.363 316.959 152.632Z" fill="white"></path>
<path d="M478.184 649.07C478.973 648.297 480.016 647.258 480.426 646.273C482.293 641.785 481.973 616.27 480.766 612.68C479.711 612.441 478.789 612.398 478.098 611.637L478.512 610.938C479.754 610.637 491.336 610.781 493.652 610.742L494.715 611.027L494.902 611.543C494.199 612.043 493.875 612.246 493.121 612.629L492.449 612.969C490.867 615.887 491.941 635.598 491.586 640.84C490.645 654.879 480.953 656.879 468.539 655.68C454.832 654.352 454.176 646.5 454.25 634.781L454.352 618.379C454.352 617.016 454.469 613.734 453.691 612.773C452.547 612.434 452.418 612.434 451.406 611.836L451.109 610.633C457.352 610.965 463.937 610.395 469.902 610.984C468.059 611.941 466.512 612.359 464.547 612.984C463.801 620.344 464.555 628.621 464.242 636.031C463.758 647.398 466.164 651.738 478.184 649.07Z" fill="white"></path>
<path d="M422.114 609.543C427.641 609.766 430.282 610.402 435.242 612.871C435.332 615.203 435.93 622.937 434.95 624.559C433.469 623.57 432.52 621.078 431.309 619.656C426.86 614.375 417.782 614.176 412.719 618.695C405.301 625.312 406.278 638.91 412.836 645.809C415.934 649.062 422.121 651.203 425.657 647.445C428.301 644.629 427.645 640.297 427.422 636.785C425.899 636.457 424.239 636.297 423.379 635.016C424.891 633.797 431.688 634.285 434.075 634.312C435.977 634.207 438.879 633.852 440.559 634.461L440.602 634.914C440.008 635.445 439.422 635.984 438.848 636.535C437.125 638.199 437.231 638.723 437.239 641.098C437.262 645.715 437.2 650.324 437.102 654.941C435.657 654.883 435.047 654.922 433.637 654.488C432.446 653.535 432.223 651.977 431.77 650.457C408.313 668.926 386.709 636.203 403.207 616.887C408.078 611.18 415.043 609.957 422.114 609.543Z" fill="white"></path>
<path d="M361.726 610.625C363.252 610.406 372.698 610.43 374.912 610.379C378.402 619.805 381.104 629.801 384.397 639.336C385.706 643.125 386.949 647.781 388.527 651.391L392.719 654.551C385.886 654.484 379.055 654.496 372.224 654.578C373.655 653.695 376.674 652.457 377.311 651.379C377.579 648.621 375.909 642.789 374.456 640.645L361.545 640.563C360.717 642.734 359.723 644.945 358.779 647.066C356.626 651.898 359.462 652.898 363.246 654.555C357.472 654.809 351.553 654.441 345.438 654.742C348.552 652.594 349.735 652.793 351.174 648.793C355.388 637.078 360.88 625.672 364.427 613.754C364.311 613.465 364.196 613.176 364.081 612.883C362.836 612.066 362.534 611.863 361.726 610.625ZM363.432 635.523L367.205 635.477L372.823 635.543C372.232 633.348 369.656 621.609 368.892 620.602C366.998 625.457 365.212 630.605 363.432 635.523Z" fill="white"></path>
<path d="M509.266 610.695C518.844 610.43 530.555 610.566 540.168 610.805C540.234 613.039 540.754 619.484 539.672 621.02C538.023 619.941 538.863 618.797 536.93 616.766C533.773 615.492 523.406 616.02 519.402 616.063C519.09 620.281 519.203 624.684 519.23 628.926C523.199 628.973 526.719 628.977 530.707 628.793C531.648 627.039 532.629 625.309 533.652 623.602C533.625 626.481 533.98 636.035 532.945 638.113L532.312 637.848C532.066 637.352 531.195 635.57 530.832 635.43C528.352 634.461 521.852 634.852 519.344 634.875C519.148 637.477 519.215 640.883 519.195 643.555L519.219 649.027C521.898 649.078 535.492 649.879 537.285 648.273C537.781 647.828 540.207 643.48 541.895 642.281L542.207 642.621C542.09 646.758 541.914 650.895 541.684 655.027C536.75 654.98 508.906 655.512 506.234 654.469L506.207 653.793C506.844 653.426 507.355 653.145 508.02 652.813L508.586 652.531C510.254 649.016 508.543 621.758 509.148 616.039C509.426 613.391 508.07 613.023 506.004 612.004L505.945 611.352C506.766 610.668 508.109 610.773 509.266 610.695Z" fill="white"></path>
<path d="M338.052 655.031C333.689 654.981 304.527 655.477 302.816 654.387C302.895 653.168 304.19 653.383 305.352 651.32C306.283 644.586 304.998 623.406 305.497 615.242C305.537 614.594 303.618 612.055 303.073 611.32C305.914 610.238 331.81 610.809 336.687 610.832C336.72 613.703 337.31 617.719 336.67 620.359L336.095 620.621C334.882 619.777 334.441 618.211 333.838 616.797C329.663 615.691 320.534 616.086 315.631 616.09L315.588 629.141L326.859 629.262L328.022 629.445C329.161 631.152 329.474 633.301 327.892 634.793C327.25 634.801 326.249 634.731 325.719 634.953C323.07 635.262 318.429 635.133 315.621 635.133L315.602 649.024C319.438 649.102 332.334 650.152 334.807 647.664C335.993 646.473 336.011 643.496 337.827 642.328C339.175 643.922 338.211 652.367 338.052 655.031Z" fill="white"></path>
<path d="M394.988 479.855C397.313 479.766 399.637 479.863 401.957 479.988C424.918 481.395 446.383 491.848 461.645 509.062L457.371 512.914C456.817 512.289 456.254 511.672 455.688 511.055C441.219 495.273 421.656 486.668 400.356 485.777C374.412 485.621 354.629 493.566 336.956 512.863C335.692 511.621 334.109 510.355 332.739 509.199C333.093 508.797 333.449 508.395 333.808 507.996C350.026 489.98 371.053 481.125 394.988 479.855Z" fill="white"></path>
<path d="M462.305 526.219C463.16 526.184 467.301 526.191 468.016 526.312C470.367 526.711 482.289 525.637 483.441 526.809C482.426 529.27 479.359 528.312 479.461 532.801C479.801 547.965 479.34 563.16 479.652 578.324C479.727 581.848 483.477 579.613 483.5 583.23C478.16 583.078 467.52 583.441 463.066 583L462.594 582.375C463.145 581.375 464.594 580.844 465.762 580.195C467.73 577.195 466.004 540.902 466.637 535.008C466.727 534.164 466.477 530.754 466.371 529.746L466.305 529.145C463.809 528.426 463.039 528.68 462.305 526.219Z" fill="white"></path>
<path d="M259.477 610.664C265.75 610.84 272.098 610.555 278.301 610.879C276.252 612.145 275.19 611.969 273.298 613.562C272.141 616.578 272.6 644.027 272.595 649.008C276.305 649.105 280.334 649.293 284.013 649.145C292.116 648.82 290.002 645.879 293.515 641.996L294.189 642C294.759 643.16 294.339 644.441 294.122 645.801C293.666 648.539 293.377 652.223 293.074 655.043C281.64 654.687 269.207 655.484 257.865 654.715C259.143 653.965 260.508 653.324 261.873 652.519C262.914 651.211 262.948 614.137 261.921 612.813C260.048 612.156 260.01 612.426 259.477 610.664Z" fill="white"></path>
<path d="M381.492 435.66C382.926 435.41 382.281 435.305 383.512 435.852C384.413 437.512 384.627 439.816 384.953 441.742C379.621 443.137 372.796 444.375 367.303 445.523L368.759 453.527C374.18 452.523 379.714 451.352 385.132 450.27C385.533 452.402 386.037 454.648 386.482 456.785C381.132 457.801 375.614 459.043 370.244 460.129C371.728 470.145 374.921 467.609 383.494 465.84L389.568 464.641L390.855 471.238C375.43 474.633 364.651 479.652 362.44 458.922C361.969 454.508 358.63 444.465 359.87 440.461C362.561 438.664 377.685 436.359 381.492 435.66Z" fill="white"></path>
<path d="M330.197 452.355C334.312 455.285 338.389 462.988 342.338 466.684C354.402 477.898 344.344 496.059 329.165 495.008C321.479 494.473 313.722 482.113 309.043 476.301L305.642 472.121C307.606 470.715 309.579 469.23 311.528 467.793C314.041 471.305 326.395 488.078 330.624 487.465C352.519 484.285 331.219 464.504 324.981 456.652C326.34 455.324 328.656 453.586 330.197 452.355Z" fill="white"></path>
<path d="M472.449 459.789C475.758 459.82 479.285 461.644 478.215 465.41C474.824 477.379 471.516 489.895 467.723 501.707C466.191 500.059 463.824 498.051 462.102 496.508C462.582 494.035 463.187 491.465 463.727 488.992L456.781 483.805C458.922 482.676 460.891 481.336 462.922 480.016C463.898 480.742 464.516 481.383 465.703 481.527C466.758 480.457 466.879 479.062 467.348 477.445L469.566 469.957C464.078 472.801 452.289 480.957 446.594 484.644L439.855 480.707C442.848 479.309 449.324 474.809 452.246 472.879C458.934 468.445 465.668 464.082 472.449 459.789Z" fill="white"></path>
<path d="M423.465 438.383C428.914 438.316 437.051 441.023 442.68 442.519C442.117 444.66 441.465 446.863 440.863 449C436.414 447.883 428.07 444.293 424.016 446.379C422.129 447.355 421.613 450.539 421.098 452.527C426.559 453.84 432.012 455.191 437.453 456.59C436.969 458.492 436.52 461.199 435.359 462.621L433.941 462.754C429.801 461.434 423.922 460.102 419.598 458.977C418.266 463.867 416.965 468.77 415.691 473.68C413.465 472.926 410.543 472.668 409.578 470.453C409.684 466.371 414.922 446.555 417.328 442.16C418.57 439.887 421.094 439.02 423.465 438.383Z" fill="white"></path>
<path d="M326.859 629.262C328.463 627.363 328.918 626.184 330.198 624.184C330.114 626.27 330.136 637.629 329.661 638.445C328.031 637.695 328.49 636.074 325.719 634.953C326.249 634.73 327.25 634.801 327.892 634.793C329.474 633.301 329.161 631.152 328.022 629.445L326.859 629.262Z" fill="white"></path>
<path d="M309.514 306.467C310.498 306.139 311.5 305.452 312.423 304.907L314.956 309.934C313.271 308.816 311.271 307.398 309.514 306.467Z" fill="white"></path>
<path d="M270.569 224.775C271.126 225.8 271.061 225.855 271.974 226.537C270.889 228.701 269.861 231.042 268.851 233.253L270.569 224.775Z" fill="white"></path>
<path d="M280.195 312.533C280.803 312.339 281.192 312.202 281.803 311.97L282.602 313.239C282.33 314.373 282.349 314.637 281.701 315.618C280.779 315.008 280.63 313.793 280.195 312.533Z" fill="white"></path>
<path d="M431.688 151.074C433.734 151.993 435.539 151.973 437.738 152.367L437.66 154.395C436.281 153.487 434.379 152.288 432.785 151.941L431.688 151.074Z" fill="white"></path>
</svg>