<svg width="600" height="600" viewBox="0 0 600 600" fill="none" xmlns="http://www.w3.org/2000/svg">
<path d="M346.761 30.3718C349.775 30.1638 353.93 30.3725 357.041 30.4343C353.355 33.8591 348.038 37.9301 344.027 41.1941C335.487 48.0905 326.991 55.0407 318.539 62.0447C315.199 64.8428 308.063 70.5665 305.563 73.8513C319.69 79.2129 333.732 84.5365 347.569 90.7C353.637 93.4026 360.369 97.3532 366.369 100.171C369.507 100.862 374.024 100.942 377.127 101.097C385.649 101.524 393.958 102.595 402.322 104.193C417.094 107.015 430.86 112.317 444.823 117.687C451.459 109.85 457.816 87.1376 461.807 76.6531C475.069 95.3793 482.912 119.63 486.773 142.037C517.356 158.476 532.708 174.521 553.301 201.814C537.727 199.488 519.674 197.474 503.833 197.075C504.029 200.325 504.826 204.964 505.216 208.376C506.136 216.208 506.81 224.067 507.234 231.941C507.507 238.783 507.627 245.631 507.592 252.478C507.577 255.511 507.325 263.687 507.756 266.196C508.942 273.129 510.486 279.966 511.576 287.031C514.31 304.629 515.833 322.391 516.132 340.198C519.943 339.43 525.65 337.57 529.386 336.386C543.267 331.998 556.45 326.323 569.654 320.25C567.615 326.05 565.843 331.263 563.3 336.887C552.984 359.692 538.002 376.055 520.251 393.094C520.356 394.895 520.55 396.937 520.825 398.724C523.38 415.464 524.443 431.317 523.784 448.219C521.59 447.331 519.39 446.49 517.189 445.623C504.524 440.631 492.48 434.015 480.621 427.35C476.634 429.158 472.163 431.839 468.111 433.848C459.826 437.918 451.307 441.498 442.6 444.562C436.729 446.587 430.784 448.321 424.723 449.739C422.153 450.343 415.049 450.932 413.229 452.197C412.477 454.523 413.874 466.271 414.018 469.626C414.542 481.731 414.551 494.194 413.953 506.291C437.643 505.336 461.754 498.076 485.271 496.081C466.767 514.974 449.007 527.815 425.517 540.249C399.39 554.024 371.118 563.264 341.9 567.577C336.571 568.374 330.513 569.329 325.187 569.604C316.729 570.041 308.165 569.288 299.736 568.722C306.091 564.58 335.646 544.722 337.447 537.495C337.244 536.126 331.913 532.019 330.539 530.853C321.589 523.274 313.102 515.305 305.405 506.437C304.834 505.778 303.964 504.978 303.044 504.964C298.6 504.887 294.12 505.526 289.665 505.772L259.943 507.126C256.211 507.258 251.892 507.668 248.235 507.606L247.868 507.6C247.284 512.771 247.73 520.245 247.93 525.436C248.45 539.018 249.775 552.709 250.96 566.27C247.587 565.204 242.81 564.205 240.067 561.902C230.684 554.024 222.473 543.316 214.974 533.727C207.54 524.223 200.981 514.06 195.375 503.469C166.476 503.806 132.375 495.99 106.684 482.748C110.092 482.297 115.738 480.627 119.15 479.68C134.202 475.506 155.665 468.316 168.604 459.384C168.112 457.569 163.231 444.925 162.376 443.144C160.234 438.678 142.444 397.717 141.037 396.905C125.529 387.97 110.861 378.416 96.167 369.436C92.8134 375.712 86.1329 384.972 82.0967 391.227C75.3833 401.657 69.2123 412.427 63.6084 423.495C61.5757 421.623 60.8161 420.671 59.2764 418.435C53.4736 410.007 53.7313 403.558 54.084 393.72C54.7285 375.741 57.7447 358.309 61.5908 340.74C58.9963 339.211 56.0023 336.905 53.46 335.171C43.6998 328.514 37.5133 323.824 30.1631 314.39C41.4848 305.411 61.1948 301.11 75.1113 298.057C76.9289 293.177 78.4264 287.43 80.3154 282.261C86.2222 266.1 92.8954 252.266 103.276 238.576C93.3381 227.501 86.1431 218.342 77.5996 206.29C68.5021 212.016 44.4278 237.801 38.8262 246.743C40.704 196.081 77.4841 131.583 115.212 97.906C119.955 93.672 126.008 89.9201 131.418 86.572C123.678 103.624 118.537 121.739 116.164 140.314C127.53 140.412 138.877 139.936 150.237 139.782C152.28 139.754 154.16 139.819 156.185 139.482C157.768 136.986 161.028 133.09 162.875 130.625C174.933 114.527 188.208 102.648 203.59 89.991C195.802 74.4445 191.947 64.9701 187.93 48.1511C191.519 48.3632 195.235 48.3243 198.931 48.5496C209.515 49.0998 220.038 50.5039 230.397 52.7468C238.671 54.5369 248.059 57.9218 255.637 59.2742C257.692 58.4506 260.958 56.686 263.123 55.6316C267.42 53.5451 271.753 51.5335 276.12 49.5994C298.509 39.7686 322.172 32.0707 346.761 30.3718ZM303.211 329.721C288.327 349.837 276.956 371.323 264.032 392.631C263.119 394.136 261.155 396.937 260.804 398.634C259.535 404.754 258.538 414.466 257.671 420.381L252.844 453.466C252.042 459.114 250.858 466.658 250.391 472.239C264.076 480.061 277.516 488.595 291.11 496.596C294.586 498.641 301.254 503.071 304.655 504.363C306.501 505.063 315.589 505.561 318.176 505.746C334.318 506.897 350.947 507.89 367.14 507.603C370.822 503.663 374.443 499.664 378.003 495.612C386.476 485.748 394.623 475.611 402.434 465.214C404.139 462.972 405.897 460.725 407.561 458.458C420.879 440.303 431.001 419.677 442.333 400.289C422.2 385.134 405.442 369.591 390.012 349.564C383.716 349.136 375.507 347.707 369.284 346.544C354.425 343.64 339.691 340.131 325.122 336.017C320.121 334.605 315.129 333.161 310.146 331.684C308.584 331.23 304.491 329.912 303.211 329.721ZM174.745 285.289C156.518 300.334 138.873 315.226 125.349 334.854C124.159 336.58 122.921 338.437 121.672 340.113C128.879 357.917 134.396 376.846 141.124 394.837C141.66 396.272 148.043 401.375 149.522 402.612C160.624 411.838 172.001 420.726 183.64 429.266C189 433.248 197.75 439.262 202.609 443.355L205.025 441.548C223.85 427.605 241.516 413.256 259.909 398.824C257.43 392.059 255.193 383.209 253.557 376.172C248.695 355.11 245.697 333.662 244.595 312.076C229.21 306.849 210.44 299.22 195.25 293.2C190.896 291.48 186.552 289.737 182.218 287.969C180.7 287.35 175.964 285.199 174.745 285.289ZM366.738 101.369C364.037 101.302 361.825 101.396 359.145 101.533C343.374 102.351 327.601 103.072 311.821 103.698C302.077 104.082 292.01 104.554 282.273 104.553C272.039 122.398 259.867 151.627 256.555 172.033C255.516 171.206 254.44 170.319 253.382 169.527C268.177 191.286 281.222 212.892 297.639 233.522C303.009 231.581 311.616 229.467 317.294 227.838C332.572 223.377 347.895 219.07 363.261 214.916C370.172 213.087 379.597 211.187 385.937 209.289C381.111 216.666 375.24 224.634 369.917 231.681C357.314 248.36 345.231 265.772 332.584 282.369C348.378 303.055 365.364 322.805 383.461 341.51C385.808 344.015 388.301 346.781 390.694 349.207C416.956 350.376 443.238 351.079 469.523 351.31C484.061 324.955 496.497 297.495 506.722 269.187C496.828 252.394 484.564 235.846 474.035 219.407C470.089 213.244 464.221 204.617 461.004 198.288C443.194 198.819 422.534 202.62 404.859 205.824C399.548 206.786 391.078 208.303 385.98 209.616C400.397 191.392 413.71 174.612 426.867 155.436C411.469 141.06 397.192 125.356 380.701 112.044C376.957 109.023 370.778 103.822 366.738 101.369ZM218.346 119.688C195.587 124.212 177.412 133.387 156.185 139.482C154.64 140.853 151.855 142.668 150.101 143.904C146.702 146.281 143.356 148.732 140.063 151.255C128.671 160.206 117.851 169.863 107.667 180.169C105.311 191.619 104.963 204.548 104.336 216.224C104.167 224.841 103.315 234.031 104.61 242.571C107 258.323 108.578 274.219 110.812 289.978C132.547 285.631 154.671 283.533 176.835 283.719C183.906 278.605 193.188 273.519 200.916 269.556C214.302 262.676 230.293 256.149 245.032 253.077C244.561 240.227 245.043 227.36 246.471 214.581C248.116 199.795 251.079 184.226 253.191 169.341C239.93 156.63 227.708 135.7 218.346 119.688Z" fill="white"></path>
</svg>