<svg width="114" height="114" viewBox="0 0 114 114" fill="none" xmlns="http://www.w3.org/2000/svg">
<path d="M57 9.5C30.8275 9.5 9.5 30.8275 9.5 57C9.5 83.1725 30.8275 104.5 57 104.5C83.1725 104.5 104.5 83.1725 104.5 57C104.5 30.8275 83.1725 9.5 57 9.5ZM77.6625 73.9575C76.9975 75.0975 75.81 75.715 74.575 75.715C73.9575 75.715 73.34 75.5725 72.77 75.1925L58.045 66.405C54.3875 64.22 51.68 59.4225 51.68 55.195V35.72C51.68 33.7725 53.295 32.1575 55.2425 32.1575C57.19 32.1575 58.805 33.7725 58.805 35.72V55.195C58.805 56.905 60.23 59.4225 61.7025 60.2775L76.4275 69.065C78.1375 70.0625 78.7075 72.2475 77.6625 73.9575Z" fill="#E8707A"></path>
</svg>