<svg width="105" height="105" viewBox="0 0 105 105" fill="none" xmlns="http://www.w3.org/2000/svg">
<path d="M70 56.4375V74.8125C70 90.125 63.875 96.25 48.5625 96.25H30.1875C14.875 96.25 8.75 90.125 8.75 74.8125V56.4375C8.75 41.125 14.875 35 30.1875 35H48.5625C63.875 35 70 41.125 70 56.4375Z" fill="white"></path>
<path d="M74.8117 8.75H56.4367C41.6936 8.75 35.5074 14.4685 35.0648 28.5148C35.0473 29.0714 35.498 29.5312 36.0549 29.5312H48.5617C66.9367 29.5312 75.468 38.0625 75.468 56.4375V68.9443C75.468 69.5013 75.9278 69.9519 76.4844 69.9344C90.5307 69.4918 96.2492 63.3056 96.2492 48.5625V30.1875C96.2492 14.875 90.1242 8.75 74.8117 8.75Z" fill="white"></path>
</svg>