<svg width="114" height="114" viewBox="0 0 114 114" fill="none" xmlns="http://www.w3.org/2000/svg">
<path d="M53.4375 86.6871H42.75C37.525 86.6871 33.25 90.9621 33.25 96.1871V97.3746H28.5C26.5525 97.3746 24.9375 98.9896 24.9375 100.937C24.9375 102.885 26.5525 104.5 28.5 104.5H85.5C87.4475 104.5 89.0625 102.885 89.0625 100.937C89.0625 98.9896 87.4475 97.3746 85.5 97.3746H80.75V96.1871C80.75 90.9621 76.475 86.6871 71.25 86.6871H60.5625V75.8096C59.375 75.9521 58.1875 75.9996 57 75.9996C55.8125 75.9996 54.625 75.9521 53.4375 75.8096V86.6871Z" fill="#117CB2"></path>
<path d="M71.248 9.5C78.753 9.5 85.2133 13.87 88.3008 20.1875H90.9609C97.8006 20.1877 103.168 25.5549 103.168 32.3945C103.168 39.2344 100.271 45.0773 95.8535 49.9697C93.6686 52.1547 90.9133 54.1025 87.7783 55.29C82.8383 67.45 70.963 76 56.998 76C43.0331 76 31.1578 67.45 26.2178 55.29C23.0829 54.1025 20.3285 52.1546 18.1436 49.9697C13.7261 45.0772 10.8281 39.2345 10.8281 32.3945C10.8284 25.5549 16.1955 20.1877 23.0352 20.1875H25.6953C28.7828 13.87 35.2431 9.50003 42.748 9.5H71.248Z" fill="#117CB2"></path>
</svg>