<svg width="114" height="114" viewBox="0 0 114 114" fill="none" xmlns="http://www.w3.org/2000/svg">
<path d="M53.4375 86.6871H42.75C37.525 86.6871 33.25 90.9621 33.25 96.1871V97.3746H28.5C26.5525 97.3746 24.9375 98.9896 24.9375 100.937C24.9375 102.885 26.5525 104.5 28.5 104.5H85.5C87.4475 104.5 89.0625 102.885 89.0625 100.937C89.0625 98.9896 87.4475 97.3746 85.5 97.3746H80.75V96.1871C80.75 90.9621 76.475 86.6871 71.25 86.6871H60.5625V75.8096C59.375 75.9521 58.1875 75.9996 57 75.9996C55.8125 75.9996 54.625 75.9521 53.4375 75.8096V86.6871Z" fill="#117CB2"></path>
<path d="M87.7781 55.29C90.9131 54.1025 93.6681 52.155 95.8531 49.97C100.271 45.0775 103.168 39.235 103.168 32.395C103.168 25.555 97.8006 20.1875 90.9606 20.1875H88.3006C85.2131 13.87 78.7531 9.5 71.2481 9.5H42.7481C35.2431 9.5 28.7831 13.87 25.6956 20.1875H23.0356C16.1956 20.1875 10.8281 25.555 10.8281 32.395C10.8281 39.235 13.7256 45.0775 18.1431 49.97C20.3281 52.155 23.0831 54.1025 26.2181 55.29C31.1581 67.45 43.0331 76 56.9981 76C70.9631 76 82.8381 67.45 87.7781 55.29ZM70.4881 40.1375L67.5431 43.7475C67.0681 44.27 66.7356 45.315 66.7831 46.0275L67.0681 50.6825C67.2581 53.5325 65.2156 55.005 62.5556 53.96L58.2331 52.25C57.5681 52.0125 56.4281 52.0125 55.7631 52.25L51.4406 53.96C48.7806 55.005 46.7381 53.5325 46.9281 50.6825L47.2131 46.0275C47.2606 45.315 46.9281 44.27 46.4531 43.7475L43.5081 40.1375C41.6556 37.9525 42.4631 35.53 45.2181 34.8175L49.7306 33.6775C50.4431 33.4875 51.2981 32.8225 51.6781 32.205L54.1956 28.31C55.7631 25.8875 58.2331 25.8875 59.8006 28.31L62.3181 32.205C62.6981 32.8225 63.5531 33.4875 64.2656 33.6775L68.7781 34.8175C71.5331 35.53 72.3406 37.9525 70.4881 40.1375Z" fill="#117CB2"></path>
</svg>