<svg width="114" height="114" viewBox="0 0 114 114" fill="none" xmlns="http://www.w3.org/2000/svg">
<path d="M79.8 42.75H60.5625V63.84L70.395 54.0075C71.1075 53.295 72.01 52.9625 72.9125 52.9625C73.815 52.9625 74.7175 53.295 75.43 54.0075C76.8075 55.385 76.8075 57.665 75.43 59.0425L59.5175 74.955C58.14 76.3325 55.86 76.3325 54.4825 74.955L38.57 59.0425C37.1925 57.665 37.1925 55.385 38.57 54.0075C39.9475 52.63 42.2275 52.63 43.605 54.0075L53.4375 63.84V42.75H34.2C19 42.75 9.5 52.25 9.5 67.45V79.7525C9.5 95 19 104.5 34.2 104.5H79.7525C94.9525 104.5 104.452 95 104.452 79.8V67.45C104.5 52.25 95 42.75 79.8 42.75Z" fill="#5DD9A9"></path>
<path d="M60.5625 13.0625C60.5625 11.115 58.9475 9.5 57 9.5C55.0525 9.5 53.4375 11.115 53.4375 13.0625V42.75H60.5625V13.0625Z" fill="#5DD9A9"></path>
</svg>