<svg width="512" height="512" viewBox="0 0 512 512" fill="none" xmlns="http://www.w3.org/2000/svg">
<path d="M173.777 160.603C178.494 153.323 183.328 144.928 187.841 137.451L213.137 95.5284L222.044 80.7425C224.436 76.7757 227.684 71.1565 230.858 67.7947C235.621 62.7353 241.816 59.2486 248.613 57.7996C257.785 55.8065 267.373 57.5748 275.23 62.7084C278.677 64.9739 281.683 67.8465 284.1 71.1861C286.373 74.2975 289.735 80.3099 291.807 83.7637L305.52 106.573L326.866 142.061C330.301 147.771 334.668 154.613 337.823 160.321C339.787 161.188 343.65 161.957 345.854 162.461L357.989 165.238L409.812 177.249L426.672 181.137C431.591 182.271 436.8 183.313 441.388 184.994C452.966 189.236 461.313 199.475 463.385 211.581C463.525 212.405 463.75 213.876 464 214.641V220.226C463.454 221.949 463.232 223.887 462.856 225.666C462.275 228.333 461.337 230.91 460.068 233.327C457.069 239.015 448.203 248.484 443.602 253.773L405.752 297.363L394.834 309.91C393.384 311.578 390.15 315.123 389.018 316.835C389.526 325.534 390.536 335.009 391.297 343.754L395.527 392.327L396.989 408.938C397.424 413.868 398.139 420.456 397.527 425.352C396.686 432.274 393.774 438.781 389.171 444.02C382.88 451.129 374.005 455.428 364.524 455.956C356.206 456.391 350.62 453.529 343.325 450.382L327.973 443.87L275.086 421.459L263.601 416.575C261.454 415.664 257.859 414.027 255.726 413.535C248.031 416.407 238.556 420.738 230.873 424.008L184.003 443.945L170.475 449.712C165.69 451.755 160.162 454.319 155.063 455.229C148.152 456.462 141.03 455.562 134.644 452.648C126.163 448.766 119.567 441.68 116.3 432.947C115 429.295 114.301 425.46 114.23 421.585C114.169 418.312 114.647 414.009 114.937 410.684L116.353 394.512L120.798 343.431C121.485 335.517 122.783 324.59 123.017 316.855C117.526 310.233 111.388 303.426 105.706 296.896L74.7826 261.288L63.1639 247.934C57.625 241.572 51.7841 235.679 49.563 227.352C49.2415 226.147 48.5576 222.777 48 221.913V213.384C48.8454 211.781 49.3154 207.873 50.1696 205.608C53.6826 196.297 60.7925 188.475 70.2477 185.018C74.0095 183.665 78.183 182.79 82.1106 181.883L97.9478 178.231L147.902 166.67L164.125 162.916C167.168 162.213 170.81 161.465 173.777 160.603Z" fill="white"></path>
</svg>