<svg width="108" height="108" viewBox="0 0 108 108" fill="none" xmlns="http://www.w3.org/2000/svg">
<path d="M54 9C29.205 9 9 29.205 9 54C9 78.795 29.205 99 54 99C78.795 99 99 78.795 99 54C99 29.205 78.795 9 54 9ZM73.575 70.065C72.945 71.145 71.82 71.73 70.65 71.73C70.065 71.73 69.48 71.595 68.94 71.235L54.99 62.91C51.525 60.84 48.96 56.295 48.96 52.29V33.84C48.96 31.995 50.49 30.465 52.335 30.465C54.18 30.465 55.71 31.995 55.71 33.84V52.29C55.71 53.91 57.06 56.295 58.455 57.105L72.405 65.43C74.025 66.375 74.565 68.445 73.575 70.065Z" fill="white"></path>
</svg>