<svg width="108" height="108" viewBox="0 0 108 108" fill="none" xmlns="http://www.w3.org/2000/svg">
<path d="M57.375 71.6404H60.3C63.225 71.6404 65.655 69.0304 65.655 65.8804C65.655 61.9654 64.26 61.2004 61.965 60.3904L57.42 58.8154V71.6404H57.375Z" fill="white"></path>
<path d="M53.8653 8.54988C29.0253 8.63988 8.9103 28.8449 9.0003 53.6849C9.0903 78.5249 29.2953 98.6399 54.1353 98.5499C78.9753 98.4599 99.0903 78.2549 99.0003 53.4149C98.9103 28.5749 78.7053 8.50488 53.8653 8.54988ZM64.1703 53.9999C67.6803 55.2149 72.4053 57.8249 72.4053 65.8799C72.4053 72.8099 66.9603 78.3899 60.3003 78.3899H57.3753V80.9999C57.3753 82.8449 55.8453 84.3749 54.0003 84.3749C52.1553 84.3749 50.6253 82.8449 50.6253 80.9999V78.3899H49.0053C41.6253 78.3899 35.6403 72.1799 35.6403 64.5299C35.6403 62.6849 37.1703 61.1549 39.0153 61.1549C40.8603 61.1549 42.3903 62.6849 42.3903 64.5299C42.3903 68.4449 45.3603 71.6399 49.0053 71.6399H50.6253V56.4299L43.8303 53.9999C40.3203 52.7849 35.5953 50.1749 35.5953 42.1199C35.5953 35.1899 41.0403 29.6099 47.7003 29.6099H50.6253V26.9999C50.6253 25.1549 52.1553 23.6249 54.0003 23.6249C55.8453 23.6249 57.3753 25.1549 57.3753 26.9999V29.6099H58.9953C66.3753 29.6099 72.3603 35.8199 72.3603 43.4699C72.3603 45.3149 70.8303 46.8449 68.9853 46.8449C67.1403 46.8449 65.6103 45.3149 65.6103 43.4699C65.6103 39.5549 62.6403 36.3599 58.9953 36.3599H57.3753V51.5699L64.1703 53.9999Z" fill="white"></path>
<path d="M42.3906 42.1654C42.3906 46.0804 43.7856 46.8454 46.0806 47.6554L50.6256 49.2304V36.3604H47.7006C44.7756 36.3604 42.3906 38.9704 42.3906 42.1654Z" fill="white"></path>
</svg>