<svg width="107" height="107" viewBox="0 0 107 107" fill="none" xmlns="http://www.w3.org/2000/svg">
<path d="M74.9013 40.125H56.8451V67.9896C56.8451 69.8175 55.3292 71.3333 53.5013 71.3333C51.6734 71.3333 50.1576 69.8175 50.1576 67.9896V40.125H32.1013C17.8346 40.125 8.91797 49.0417 8.91797 63.3083V74.8554C8.91797 89.1667 17.8346 98.0833 32.1013 98.0833H74.8567C89.1234 98.0833 98.0401 89.1667 98.0401 74.9V63.3083C98.0846 49.0417 89.168 40.125 74.9013 40.125Z" fill="white"></path>
<path d="M56.8422 20.3299L66.071 29.5587C66.7397 30.2274 67.5868 30.5395 68.4339 30.5395C69.281 30.5395 70.1281 30.2274 70.7968 29.5587C72.0897 28.2658 72.0897 26.1258 70.7968 24.8328L55.8614 9.89742C54.5685 8.60451 52.4285 8.60451 51.1356 9.89742L36.2002 24.8328C34.9072 26.1258 34.9072 28.2658 36.2002 29.5587C37.4931 30.8516 39.6331 30.8516 40.926 29.5587L50.1547 20.3299V40.1249H56.8422V20.3299Z" fill="white"></path>
</svg>