<svg width="108" height="108" viewBox="0 0 108 108" fill="none" xmlns="http://www.w3.org/2000/svg">
<path d="M95.625 41.1746C85.23 24.8396 70.02 15.4346 54 15.4346C45.99 15.4346 38.205 17.7746 31.095 22.1396C23.985 26.5496 17.595 32.9846 12.375 41.1746C7.875 48.2396 7.875 59.7146 12.375 66.7796C22.77 83.1596 37.98 92.5196 54 92.5196C62.01 92.5196 69.795 90.1796 76.905 85.8146C84.015 81.4046 90.405 74.9696 95.625 66.7796C100.125 59.7596 100.125 48.2396 95.625 41.1746ZM54 72.1796C43.92 72.1796 35.82 64.0346 35.82 53.9996C35.82 43.9646 43.92 35.8196 54 35.8196C64.08 35.8196 72.18 43.9646 72.18 53.9996C72.18 64.0346 64.08 72.1796 54 72.1796Z" fill="white"></path>
<path d="M54.0008 41.1299C46.9358 41.1299 41.1758 46.8899 41.1758 53.9999C41.1758 61.0649 46.9358 66.8249 54.0008 66.8249C61.0658 66.8249 66.8708 61.0649 66.8708 53.9999C66.8708 46.9349 61.0658 41.1299 54.0008 41.1299Z" fill="white"></path>
</svg>