<svg width="108" height="108" viewBox="0 0 108 108" fill="none" xmlns="http://www.w3.org/2000/svg">
<path d="M75.376 16.02V9C75.376 7.155 73.846 5.625 72.001 5.625C70.156 5.625 68.626 7.155 68.626 9V15.75H39.376V9C39.376 7.155 37.846 5.625 36.001 5.625C34.156 5.625 32.626 7.155 32.626 9V16.02C20.476 17.145 14.581 24.39 13.681 35.145C13.591 36.45 14.671 37.53 15.931 37.53H92.071C93.376 37.53 94.456 36.405 94.321 35.145C93.421 24.39 87.526 17.145 75.376 16.02Z" fill="white"></path>
<path d="M90 44.2803H18C15.525 44.2803 13.5 46.3053 13.5 48.7803V76.5003C13.5 90.0003 20.25 99.0003 36 99.0003H72C87.75 99.0003 94.5 90.0003 94.5 76.5003V48.7803C94.5 46.3053 92.475 44.2803 90 44.2803ZM41.445 81.9453C40.995 82.3503 40.5 82.6653 39.96 82.8903C39.42 83.1153 38.835 83.2503 38.25 83.2503C37.665 83.2503 37.08 83.1153 36.54 82.8903C36 82.6653 35.505 82.3503 35.055 81.9453C34.245 81.0903 33.75 79.9203 33.75 78.7503C33.75 77.5803 34.245 76.4103 35.055 75.5553C35.505 75.1503 36 74.8353 36.54 74.6103C37.62 74.1603 38.88 74.1603 39.96 74.6103C40.5 74.8353 40.995 75.1503 41.445 75.5553C42.255 76.4103 42.75 77.5803 42.75 78.7503C42.75 79.9203 42.255 81.0903 41.445 81.9453ZM42.39 64.7103C42.165 65.2503 41.85 65.7453 41.445 66.1953C40.995 66.6003 40.5 66.9153 39.96 67.1403C39.42 67.3653 38.835 67.5003 38.25 67.5003C37.665 67.5003 37.08 67.3653 36.54 67.1403C36 66.9153 35.505 66.6003 35.055 66.1953C34.65 65.7453 34.335 65.2503 34.11 64.7103C33.885 64.1703 33.75 63.5853 33.75 63.0003C33.75 62.4153 33.885 61.8303 34.11 61.2903C34.335 60.7503 34.65 60.2553 35.055 59.8053C35.505 59.4003 36 59.0853 36.54 58.8603C37.62 58.4103 38.88 58.4103 39.96 58.8603C40.5 59.0853 40.995 59.4003 41.445 59.8053C41.85 60.2553 42.165 60.7503 42.39 61.2903C42.615 61.8303 42.75 62.4153 42.75 63.0003C42.75 63.5853 42.615 64.1703 42.39 64.7103ZM57.195 66.1953C56.745 66.6003 56.25 66.9153 55.71 67.1403C55.17 67.3653 54.585 67.5003 54 67.5003C53.415 67.5003 52.83 67.3653 52.29 67.1403C51.75 66.9153 51.255 66.6003 50.805 66.1953C49.995 65.3403 49.5 64.1703 49.5 63.0003C49.5 61.8303 49.995 60.6603 50.805 59.8053C51.255 59.4003 51.75 59.0853 52.29 58.8603C53.37 58.3653 54.63 58.3653 55.71 58.8603C56.25 59.0853 56.745 59.4003 57.195 59.8053C58.005 60.6603 58.5 61.8303 58.5 63.0003C58.5 64.1703 58.005 65.3403 57.195 66.1953Z" fill="white"></path>
</svg>