<svg width="74" height="93" viewBox="0 0 74 93" fill="none" xmlns="http://www.w3.org/2000/svg">
<path d="M32.8621 0C45.56 5.75924 53.7445 19.8361 53.5467 33.5947C53.528 34.8997 53.2847 36.2508 53.1912 37.5576C54.318 36.1191 55.4024 34.8191 56.4266 33.293C57.1022 32.2861 57.9023 30.5445 58.6873 29.7305C59.1113 29.2867 59.6773 29.005 60.2869 28.9336C62.2862 28.7044 64.1031 31.2194 65.2469 32.5732C69.9869 38.1918 72.9087 45.1177 73.6248 52.4336C74.6203 62.2458 71.6329 72.0467 65.3338 79.6357C59.8697 86.2 52.2377 90.8484 43.7987 92.4287C43.2804 92.525 41.2606 92.7866 40.9578 93.001H33.1834C32.8472 92.8575 28.8652 92.1159 28.1239 91.9434C18.7113 89.6601 10.5825 83.7488 5.5096 75.498C3.64276 72.463 2.23006 69.1706 1.31624 65.7266C-2.16858 52.8885 1.38728 39.9017 10.5487 30.3418C13.0245 27.7582 14.7328 26.7991 17.3856 24.7207C20.0446 22.6423 22.3621 20.1602 24.2537 17.3652C26.5137 14.0138 28.0772 10.2426 28.8524 6.27539C29.109 4.95877 29.2007 3.69072 29.4569 2.38867C29.7149 1.07763 30.2996 0.653172 31.3641 0H32.8621Z" fill="#F59E0B"></path>
</svg>