<svg width="107" height="107" viewBox="0 0 107 107" fill="none" xmlns="http://www.w3.org/2000/svg">
<path d="M50.1575 26.7498V88.7652C50.1575 91.9306 46.9475 94.1152 44.0496 92.9114C35.7571 89.4339 25.4584 86.4023 18.1467 85.4214L16.7646 85.2431C12.4401 84.7081 8.91797 80.7402 8.91797 76.4156V23.406C8.91797 18.056 13.2426 13.7314 18.5926 13.7314H18.9046C27.2863 14.4448 39.6359 18.3681 47.7946 22.7819C49.2659 23.5844 50.1575 25.0556 50.1575 26.7498Z" fill="white"></path>
<path d="M88.4087 13.7314H88.1412C87.0712 13.8206 85.9121 13.9544 84.7083 14.1773C79.2246 15.0689 72.7154 16.9414 66.875 19.2598C64.1108 20.3744 61.525 21.5781 59.2512 22.7819C57.78 23.5844 56.8438 25.1002 56.8438 26.7498V88.7652C56.8438 91.9306 60.0537 94.1152 62.9517 92.9114C71.2442 89.4339 81.5429 86.4023 88.8546 85.4214L90.2367 85.2431C94.5612 84.7081 98.0833 80.7402 98.0833 76.4156V23.406C98.0833 18.056 93.7587 13.7314 88.4087 13.7314ZM85.9121 61.2127C85.9121 62.9514 84.6637 63.7094 83.1479 62.8623L78.4221 60.2319C77.9317 59.9644 77.1292 59.9644 76.5942 60.2319L71.8683 62.8623C70.3525 63.7094 69.1042 62.9514 69.1042 61.2127V47.5256C69.1042 45.4748 70.7983 43.7806 72.8492 43.7806H82.2117C84.2625 43.7806 85.9567 45.4748 85.9567 47.5256V61.2127H85.9121Z" fill="white"></path>
</svg>