<svg width="109" height="109" viewBox="0 0 109 109" fill="none" xmlns="http://www.w3.org/2000/svg">
<path d="M54.4987 9.08301C29.4741 9.08301 9.08203 29.4751 9.08203 54.4997C9.08203 79.5243 29.4741 99.9163 54.4987 99.9163C79.5233 99.9163 99.9154 79.5243 99.9154 54.4997C99.9154 29.4751 79.5233 9.08301 54.4987 9.08301ZM51.0925 36.333C51.0925 34.4709 52.6366 32.9268 54.4987 32.9268C56.3608 32.9268 57.905 34.4709 57.905 36.333V59.0413C57.905 60.9034 56.3608 62.4476 54.4987 62.4476C52.6366 62.4476 51.0925 60.9034 51.0925 59.0413V36.333ZM58.677 74.3922C58.45 74.9826 58.132 75.4368 57.7233 75.8909C57.2691 76.2997 56.7695 76.6176 56.2245 76.8447C55.6795 77.0718 55.0891 77.208 54.4987 77.208C53.9083 77.208 53.3179 77.0718 52.7729 76.8447C52.2279 76.6176 51.7283 76.2997 51.2741 75.8909C50.8654 75.4368 50.5475 74.9826 50.3204 74.3922C50.0933 73.8472 49.957 73.2568 49.957 72.6663C49.957 72.0759 50.0933 71.4855 50.3204 70.9405C50.5475 70.3955 50.8654 69.8959 51.2741 69.4418C51.7283 69.033 52.2279 68.7151 52.7729 68.488C53.8629 68.0338 55.1345 68.0338 56.2245 68.488C56.7695 68.7151 57.2691 69.033 57.7233 69.4418C58.132 69.8959 58.45 70.3955 58.677 70.9405C58.9041 71.4855 59.0404 72.0759 59.0404 72.6663C59.0404 73.2568 58.9041 73.8472 58.677 74.3922Z" fill="#E8707A"></path>
</svg>