<svg width="512" height="512" viewBox="0 0 512 512" fill="none" xmlns="http://www.w3.org/2000/svg">
<path d="M251.279 199.136C282.661 196.559 310.186 219.918 312.75 251.3C315.313 282.683 291.945 310.199 260.56 312.751C229.195 315.302 201.697 291.948 199.134 260.583C196.572 229.218 219.914 201.711 251.279 199.136Z" fill="#DD6B74"></path>
<path d="M349.048 176.975C354.671 176.696 362.162 178.12 365.67 183.113C394.814 224.572 395.1 282.943 368.029 325.558C364.853 330.558 360.707 333.482 354.925 334.735C349.912 335.394 345.449 334.502 341.218 331.676C334.456 327.11 331.434 318.689 333.752 310.867C334.905 306.928 337.625 303.16 339.569 299.501C341.661 295.487 343.461 291.327 344.959 287.055C353.301 263.399 351.822 236.913 340.606 214.425C338.203 209.608 334.176 204.243 333.225 198.99C332.37 194.036 333.47 188.944 336.29 184.782C339.61 179.982 343.48 178.005 349.048 176.975Z" fill="#DD6B74"></path>
<path d="M158.188 177.011C162.774 176.671 167.066 177.55 170.885 180.198C177.579 184.921 180.498 193.402 178.127 201.246C177.078 204.715 174.081 208.859 172.368 212.153C170.429 215.88 168.731 219.717 167.298 223.667C163.072 235.337 161.167 247.721 161.691 260.123C162.329 273.841 165.936 287.257 172.264 299.444C174.712 304.25 177.64 307.167 178.537 312.743C180.319 323.816 173.142 333.317 162.077 334.89C150.69 335.559 145.99 329.671 140.897 320.618C133.228 306.992 128.04 292.113 125.575 276.672C121.306 249.812 125.454 222.288 137.449 197.879C142.391 187.895 146.053 178.872 158.188 177.011Z" fill="#DD6B74"></path>
<path d="M410.821 134.942H418.709C419.862 135.636 421.625 136.274 422.913 136.851C429.681 139.886 433.239 147.075 436.752 153.348C464.421 201.906 471.309 259.511 455.868 313.185C451.734 327.585 436.211 367.893 423.632 374.73C419.289 377.074 414.18 377.579 409.46 376.13C404.531 374.637 400.413 371.236 398.026 366.689C395.944 362.656 395.399 358.008 396.494 353.606C397.77 348.492 403.886 339.733 406.719 334.292C411.419 325.255 415.303 315.82 418.33 306.098C430.39 267.262 428.063 225.405 411.771 188.132C407.776 178.996 403.348 171.311 398.216 162.971C393.693 155.614 396.21 143.56 403.379 138.786C405.95 137.075 407.624 136.57 410.305 135.207L410.821 134.942Z" fill="#DD6B74"></path>
<path d="M92.907 134.942H100.752C104.732 137.002 106.982 136.942 110.397 140.494C123.33 153.945 110.414 167.196 104.193 179.436C93.4983 200.549 87.357 223.658 86.1633 247.276C84.5761 279.264 91.8995 311.024 107.701 338.873C112.214 346.825 117.794 352.915 115.33 362.605C114.035 367.638 110.74 371.931 106.202 374.494C101.834 376.987 96.6375 377.607 91.8026 376.21C82.2657 373.463 77.3541 362.752 72.8057 354.345C46.5589 305.667 40.8269 248.589 56.8736 195.696C61.033 181.968 74.6445 148.75 84.6395 139.483C87.0145 137.281 89.8944 136.58 92.6639 135.076L92.907 134.942Z" fill="#DD6B74"></path>
</svg>