<svg width="789" height="789" viewBox="0 0 789 789" fill="none" xmlns="http://www.w3.org/2000/svg">
<path d="M494.071 404.398C561.986 401.906 615.268 452.688 616.999 520.743C594.683 521.213 571.761 520.484 549.408 520.784C538.745 520.93 524.774 520.257 514.461 521.5C532.254 522.885 548.425 529.449 563.421 538.919C567.689 541.47 573.005 545.647 576.722 548.859C625.313 590.863 630.456 664.94 587.955 713.244C567.853 736.49 539.228 750.661 508.553 752.556C494.568 753.462 475.54 752.889 461.091 752.889H374.417L302.642 752.907C285.423 752.917 264.4 753.805 247.73 750.625C228.954 747.045 209.032 736.863 194.78 724.273C171.846 704.257 157.749 675.987 155.561 645.621C154.341 626.74 155.169 600.912 155.158 581.593L155.13 539.374C155.125 524.593 154.638 508.781 157.999 494.355C162.377 475.801 171.225 458.592 183.775 444.238C204.934 420.191 232.629 406.753 264.49 404.685C274.093 404.202 284.75 404.393 294.439 404.393L340.899 404.403C341.301 409.791 342.879 415.863 342.972 421.307C343.088 428.076 342.169 435.282 342.682 442.042C342.986 446.064 345.47 451.454 345.009 455.653C344.423 460.997 342.522 466.6 341.232 472.002C339.223 480.416 338.039 488.834 336.008 497.143C335.535 499.079 331.903 503.498 330.93 505.866C329.467 509.424 328.642 513.319 327.269 516.799C326.036 519.919 322.404 524.019 320.927 527.094C318.911 531.289 317.623 536.482 315.631 540.709C314.438 543.242 312.13 546.695 310.559 549.023C305.032 557.204 303.869 562.01 303.287 571.653L302.716 571.972L301.933 572.428C301.789 572.51 301.644 572.587 301.501 572.664C298.423 574.067 298.206 577.479 300.453 579.738C301.208 580.499 303.587 580.883 304.712 580.864C315.149 580.714 325.597 580.768 336.039 580.773L405.677 580.786L450.965 580.791C457.206 580.791 469.478 581.137 475.268 580.449C477.385 578.923 477.768 576.664 476.902 574.322C475.745 573.389 475.367 573.193 474.615 571.876C474.752 571.12 475.053 569.854 474.738 569.111C469.928 557.801 464.015 546.098 458.198 535.284C455.889 531.239 451.945 527.317 450.031 523.099C447.612 517.76 446.31 511.109 444.843 505.383C438.37 500.368 435.532 496.874 432.397 489.317C426.977 476.225 427.87 462.678 427.009 448.921C426.786 445.322 424.44 439.574 424.973 435.788C426.617 424.154 429.533 415.089 433.992 404.434L478.984 404.393C483.904 404.393 489.211 404.575 494.071 404.398ZM368.795 614.044C361.763 613.921 354.728 613.908 347.694 613.999L347.66 681.376L368.779 681.403L368.795 614.044ZM341.469 614.003C324.368 613.953 306.968 613.789 289.883 613.981L289.893 681.39L310.96 681.394C310.961 673.664 310.735 664.562 311.089 656.942L326.391 656.964C327.736 653.989 328.45 652.103 329.483 649.001L331.983 642.455C325.02 642.455 317.897 642.542 310.948 642.451C310.972 638.097 310.876 633.036 311.106 628.736L336.088 628.859C337.779 623.916 339.423 618.804 341.469 614.003ZM434.488 614.063C417.903 613.835 399.572 613.666 382.993 613.994L382.998 681.39L404.187 681.394L404.246 656.964L420.139 656.937C420.845 654.855 421.693 652.131 422.485 650.136C423.374 647.621 424.243 645.102 425.086 642.569C418.121 642.492 411.16 642.456 404.195 642.465C404.209 637.933 404.163 633.277 404.25 628.758L429.318 628.835C431.222 624.667 433.14 618.554 434.488 614.063ZM447.221 613.953C444.26 622.877 441.203 631.773 438.023 640.619C433.181 654.089 429.013 667.901 423.747 681.202C430.83 681.371 437.914 681.408 445.002 681.321C446.027 677.873 446.806 675.226 448.163 671.909C450.719 671.877 468.661 671.577 470.466 672.087C471.377 674.989 472.562 678.448 473.35 681.331C480.173 681.336 487.694 681.485 494.458 681.212L480.137 639.996C477.299 631.933 473.509 622.057 471.026 613.967L447.221 613.953ZM459.077 639.837C459.802 640.539 464.544 655.278 465.952 658.153L460.728 658.18L452.91 658.162C454.851 651.717 456.772 646.173 459.077 639.837Z" fill="white"></path>
<path d="M155.254 152.451C156.295 118.252 167.246 90.7019 192.465 66.9215C207.653 52.8746 226.296 43.1146 246.489 38.6395C262.538 35.222 282.294 36.0618 298.969 36.0791L357.181 36.0914L452.461 36.0832C469.416 36.0764 486.367 36.0695 503.327 36.1748C566.612 36.569 619.318 92.3952 616.854 155.631C615.857 187.022 602.29 216.694 579.209 237.976C564.458 251.548 539.496 265.347 519.385 267.126L518.952 267.777L520.76 268.43L617 268.503L616.964 385.935L438.639 385.839C441.066 375.643 446.877 367.004 449.738 357.023C454.369 340.846 455.877 324.052 460.262 307.756C463.25 296.638 468.924 286.505 472.472 275.598C475.123 267.45 475.273 259.522 477.004 251.28C477.883 247.096 479.691 243.158 480.647 238.993C482.004 233.087 487.077 198.53 483.785 194.457C482.387 192.733 479.672 193.067 477.7 192.688C476.106 192.383 475.095 191.656 474.435 190.139C473.091 187.051 473.087 182.173 472.372 178.775C470.25 168.66 464.807 158.598 458.791 150.292C445.825 132.38 425.678 119.441 403.699 116.11C380.588 112.605 357.3 117.889 338.539 131.965C318.295 147.155 304.753 171.901 304.087 197.393C303.939 203.072 306.733 208.233 306.434 212.211C306.148 216.021 301.755 216.745 300.896 220.342C300.101 223.668 301.871 232.48 302.61 236.13C303.514 240.598 305.047 244.948 306.258 249.341C307.344 253.277 308.127 257.486 309.54 261.308C311.542 266.721 315.232 270.996 316.333 276.855C317.711 284.189 317.114 291.902 317.944 299.325C319.161 310.218 321.433 320.717 323.733 331.417C325.22 338.33 326.576 345.489 328.575 352.27C331.384 361.791 341.67 368.993 341.983 379.184C342.051 381.4 341.576 383.779 341.27 385.976C319.436 385.552 296.477 385.889 274.568 385.885L155.302 385.935C154.936 360.211 155.389 334.267 155.251 308.55C155.029 267.099 151.681 235.14 178.008 199.373C196.565 174.341 224.382 157.803 255.228 153.464L255.16 153.057C253.605 152.489 240.412 152.74 237.975 152.739L182.683 152.702C176.299 152.709 160.867 153.198 155.254 152.451Z" fill="white"></path>
</svg>