<svg width="512" height="512" viewBox="0 0 512 512" fill="none" xmlns="http://www.w3.org/2000/svg">
<path d="M256.427 437.973C206.72 437.973 157.013 430.08 109.867 414.293C91.9467 408.107 78.2934 395.52 72.3201 379.093C66.1334 362.667 68.2667 344.533 78.0801 328.32L102.613 287.573C107.733 279.04 112.427 261.973 112.427 251.947V190.293C112.427 110.933 177.067 46.2935 256.427 46.2935C335.787 46.2935 400.427 110.933 400.427 190.293V251.947C400.427 261.76 405.12 279.04 410.24 287.787L434.56 328.32C443.733 343.68 445.44 362.24 439.253 379.093C433.067 395.947 419.627 408.747 402.773 414.293C355.84 430.08 306.133 437.973 256.427 437.973ZM256.427 78.2935C194.773 78.2935 144.427 128.427 144.427 190.293V251.947C144.427 267.52 138.027 290.56 130.133 304L105.6 344.747C100.907 352.64 99.6267 360.96 102.4 368C104.96 375.253 111.36 380.8 120.107 383.787C209.28 413.653 303.787 413.653 392.96 383.787C400.64 381.227 406.613 375.467 409.387 367.787C412.16 360.107 411.52 351.787 407.253 344.747L382.72 304C374.613 290.133 368.427 267.307 368.427 251.733V190.293C368.427 128.427 318.293 78.2935 256.427 78.2935Z" fill="white"></path>
<path d="M296.107 84.0533C294.613 84.0533 293.12 83.84 291.627 83.4133C285.44 81.7067 279.467 80.4267 273.707 79.5733C255.573 77.2267 238.08 78.5067 221.653 83.4133C215.68 85.3333 209.28 83.4133 205.227 78.9333C201.173 74.4533 199.893 68.0533 202.24 62.2933C210.987 39.8933 232.32 25.1733 256.64 25.1733C280.96 25.1733 302.293 39.68 311.04 62.2933C313.173 68.0533 312.107 74.4533 308.053 78.9333C304.853 82.3467 300.373 84.0533 296.107 84.0533Z" fill="white"></path>
<path d="M256.427 486.613C235.307 486.613 214.827 478.08 199.893 463.147C184.96 448.213 176.427 427.733 176.427 406.613H208.427C208.427 419.2 213.547 431.573 222.507 440.533C231.467 449.493 243.84 454.613 256.427 454.613C282.88 454.613 304.427 433.067 304.427 406.613H336.427C336.427 450.773 300.587 486.613 256.427 486.613Z" fill="white"></path>
</svg>