<svg width="512" height="512" viewBox="0 0 512 512" fill="none" xmlns="http://www.w3.org/2000/svg">
<path d="M412.587 309.12L391.253 273.707C386.773 265.813 382.72 250.88 382.72 242.133V188.16C382.72 138.027 353.28 94.7201 310.827 74.4534C299.733 54.8267 279.253 42.6667 255.787 42.6667C232.533 42.6667 211.627 55.2534 200.533 75.0934C158.933 95.7867 130.133 138.667 130.133 188.16V242.133C130.133 250.88 126.08 265.813 121.6 273.493L100.053 309.12C91.5199 323.413 89.5999 339.2 94.9333 353.707C100.053 368 112.213 379.093 128 384.427C169.387 398.507 212.907 405.333 256.427 405.333C299.947 405.333 343.467 398.507 384.853 384.64C399.787 379.733 411.307 368.427 416.853 353.707C422.4 338.987 420.907 322.773 412.587 309.12Z" fill="white" fill-opacity="0.8"></path>
<path d="M316.373 426.88C307.413 451.627 283.733 469.333 256 469.333C239.147 469.333 222.507 462.507 210.773 450.347C203.947 443.947 198.827 435.413 195.84 426.667C198.613 427.093 201.387 427.307 204.373 427.733C209.28 428.373 214.4 429.013 219.52 429.44C231.68 430.507 244.053 431.147 256.427 431.147C268.587 431.147 280.747 430.507 292.693 429.44C297.173 429.013 301.653 428.8 305.92 428.16C309.333 427.733 312.747 427.307 316.373 426.88Z" fill="white" fill-opacity="0.8"></path>
</svg>