<svg width="93" height="93" viewBox="0 0 93 93" fill="none" xmlns="http://www.w3.org/2000/svg">
<path d="M81.375 85.25H11.625C10.0363 85.25 8.71875 83.9325 8.71875 82.3438C8.71875 80.755 10.0363 79.4375 11.625 79.4375H81.375C82.9637 79.4375 84.2812 80.755 84.2812 82.3438C84.2812 83.9325 82.9637 85.25 81.375 85.25Z" fill="white"></path>
<path d="M73.7035 13.4854C66.186 5.96793 58.8235 5.77418 51.1122 13.4854L46.4235 18.1742C46.036 18.5617 45.881 19.1817 46.036 19.7242C48.981 29.9929 57.196 38.2079 67.4647 41.1529C67.6197 41.1917 67.7747 41.2304 67.9297 41.2304C68.356 41.2304 68.7435 41.0754 69.0535 40.7654L73.7035 36.0767C77.5397 32.2792 79.3997 28.5979 79.3997 24.8779C79.4385 21.0417 77.5785 17.3217 73.7035 13.4854Z" fill="white"></path>
<path d="M60.4893 44.6784C59.3655 44.1359 58.2805 43.5934 57.2343 42.9734C56.3818 42.4696 55.568 41.9271 54.7543 41.3459C54.0955 40.9196 53.3205 40.2996 52.5843 39.6796C52.5068 39.6409 52.2355 39.4084 51.9255 39.0984C50.6468 38.0134 49.213 36.6184 47.9343 35.0684C47.818 34.9909 47.6243 34.7196 47.353 34.3709C46.9655 33.9059 46.3068 33.1309 45.7255 32.2396C45.2605 31.6584 44.718 30.8059 44.2143 29.9534C43.5943 28.9071 43.0518 27.8609 42.5093 26.7759C42.091 25.8796 41.7418 25.0063 41.4262 24.1739C41.297 23.833 40.8592 23.7371 40.6015 23.9949L16.818 47.7784C16.3143 48.2821 15.8493 49.2509 15.733 49.9096L13.6405 64.7509C13.253 67.3859 13.9893 69.8659 15.6168 71.5321C17.0118 72.8884 18.9493 73.6246 21.0418 73.6246C21.5068 73.6246 21.9718 73.5859 22.4368 73.5084L37.3168 71.4159C38.0143 71.2996 38.983 70.8346 39.448 70.3309L63.2243 46.5545C63.4839 46.295 63.3848 45.853 63.0415 45.723C62.2125 45.409 61.3854 45.0667 60.4893 44.6784Z" fill="white"></path>
</svg>