<svg width="108" height="108" viewBox="0 0 108 108" fill="none" xmlns="http://www.w3.org/2000/svg">
<path d="M30.015 63H18C13.05 63 9 67.05 9 72V94.5C9 96.975 11.025 99 13.5 99H30.015C32.49 99 34.515 96.975 34.515 94.5V67.5C34.515 65.025 32.49 63 30.015 63Z" fill="white"></path>
<path d="M59.9838 45H47.9688C43.0187 45 38.9688 49.05 38.9688 54V94.5C38.9688 96.975 40.9937 99 43.4688 99H64.4838C66.9588 99 68.9838 96.975 68.9838 94.5V54C68.9838 49.05 64.9788 45 59.9838 45Z" fill="white"></path>
<path d="M89.9994 76.5H77.9844C75.5094 76.5 73.4844 78.525 73.4844 81V94.5C73.4844 96.975 75.5094 99 77.9844 99H94.4994C96.9744 99 98.9994 96.975 98.9994 94.5V85.5C98.9994 80.55 94.9494 76.5 89.9994 76.5Z" fill="white"></path>
<path d="M67.5464 21.8252C68.9414 20.4302 69.4814 18.7652 69.0314 17.3252C68.5814 15.8852 67.1864 14.8502 65.2064 14.5352L60.8864 13.8152C60.7064 13.8152 60.3014 13.5002 60.2114 13.3202L57.8264 8.55016C56.0264 4.90516 51.9314 4.90516 50.1314 8.55016L47.7464 13.3202C47.7014 13.5002 47.2964 13.8152 47.1164 13.8152L42.7964 14.5352C40.8164 14.8502 39.4664 15.8852 38.9714 17.3252C38.5214 18.7652 39.0614 20.4302 40.4564 21.8252L43.7864 25.2002C43.9664 25.3352 44.1014 25.8752 44.0564 26.0552L43.1114 30.1952C42.3914 33.3002 43.5614 34.6952 44.3264 35.2352C45.0914 35.7752 46.7564 36.4952 49.5014 34.8752L53.5514 32.4902C53.7314 32.3552 54.3164 32.3552 54.4964 32.4902L58.5014 34.8752C59.7614 35.6402 60.7964 35.8652 61.6064 35.8652C62.5514 35.8652 63.2264 35.5052 63.6314 35.2352C64.3964 34.6952 65.5664 33.3002 64.8464 30.1952L63.9014 26.0552C63.8564 25.8302 63.9914 25.3352 64.1714 25.2002L67.5464 21.8252Z" fill="white"></path>
</svg>