<svg width="95" height="94" viewBox="0 0 95 94" fill="none" xmlns="http://www.w3.org/2000/svg">
<path d="M47.0273 0C49.4334 0 54.0277 1.04967 57.5273 8.09277L65.2266 23.4912C65.839 24.6724 67.7198 26.0723 69.0322 26.291L82.9873 28.6104C90.5548 29.879 92.9171 33.9029 93.6172 36.1777C94.3171 38.4525 94.7548 43.0901 89.374 48.5146L78.5254 59.4072C77.4756 60.4571 76.8189 62.819 77.125 64.2627L80.2314 77.6934C82.2436 86.4423 79.1373 90.248 77.125 91.7354C76.0313 92.5228 74.2816 93.3975 71.7881 93.3975C69.4696 93.3975 66.4948 92.6541 62.7764 90.4668L49.6963 82.7236C48.3402 81.9363 45.7158 81.9364 44.4033 82.7236L31.2793 90.4668C23.5362 95.0601 18.9867 93.2227 16.9307 91.7354C14.9184 90.248 11.7683 86.4423 13.8242 77.6934L16.9307 64.2627C17.2804 62.8628 16.5801 60.4571 15.5303 59.4072L4.68164 48.5586C-0.742873 43.1341 -0.305207 38.4965 0.438477 36.2217C1.18221 33.9469 3.54429 29.922 11.0684 28.6533L25.0234 26.335C26.3358 26.1162 28.2174 24.7163 28.7861 23.5352L36.5283 8.09277C40.0278 1.05015 44.6212 0.000141909 47.0273 0Z" fill="#F2C85B"></path>
</svg>