<svg width="128" height="128" viewBox="0 0 128 128" fill="none" xmlns="http://www.w3.org/2000/svg">
<path d="M94.1886 120.907C91.3619 120.907 87.7353 120 83.2019 117.333L67.2553 107.893C65.6019 106.933 62.4019 106.933 60.8019 107.893L44.8019 117.333C35.3619 122.933 29.8153 120.693 27.3086 118.88C24.8553 117.067 21.0153 112.427 23.5219 101.76L27.3086 85.3867C27.7353 83.68 26.8819 80.7467 25.6019 79.4667L12.3753 66.24C5.76193 59.6267 6.29526 53.9734 7.20193 51.2C8.1086 48.4267 10.9886 43.52 20.1619 41.9734L37.1753 39.1467C38.7753 38.88 41.0686 37.1734 41.7619 35.7334L51.2019 16.9067C55.4686 8.32004 61.0686 7.04004 64.0019 7.04004C66.9353 7.04004 72.5353 8.32004 76.8019 16.9067L86.1886 35.68C86.9353 37.12 89.2286 38.8267 90.8286 39.0934L107.842 41.92C117.069 43.4667 119.949 48.3734 120.802 51.1467C121.655 53.92 122.189 59.5734 115.629 66.1867L102.402 79.4667C101.122 80.7467 100.322 83.6267 100.695 85.3867L104.482 101.76C106.935 112.427 103.149 117.067 100.695 118.88C99.3619 119.84 97.2286 120.907 94.1886 120.907ZM64.0019 99.1467C66.6153 99.1467 69.2286 99.7867 71.3086 101.013L87.2553 110.453C91.8953 113.227 94.8286 113.227 95.9486 112.427C97.0686 111.627 97.8686 108.8 96.6953 103.573L92.9086 87.2C91.8953 82.7734 93.5486 77.0667 96.7486 73.8134L109.975 60.5867C112.589 57.9734 113.762 55.4134 113.229 53.6534C112.642 51.8934 110.189 50.4534 106.562 49.8667L89.5486 47.04C85.4419 46.3467 80.9619 43.04 79.0953 39.3067L69.7086 20.5334C68.0019 17.12 65.8686 15.0934 64.0019 15.0934C62.1353 15.0934 60.0019 17.12 58.3486 20.5334L48.9086 39.3067C47.0419 43.04 42.5619 46.3467 38.4553 47.04L21.4953 49.8667C17.8686 50.4534 15.4153 51.8934 14.8286 53.6534C14.2419 55.4134 15.4686 58.0267 18.0819 60.5867L31.3086 73.8134C34.5086 77.0134 36.1619 82.7734 35.1486 87.2L31.3619 103.573C30.1353 108.853 30.9886 111.627 32.1086 112.427C33.2286 113.227 36.1086 113.173 40.8019 110.453L56.7486 101.013C58.7753 99.7867 61.3886 99.1467 64.0019 99.1467Z" fill="#F2C85B"></path>
<path d="M64.0019 99.1467C66.6153 99.1467 69.2286 99.7867 71.3086 101.013L87.2553 110.453C91.8953 113.227 94.8286 113.227 95.9486 112.427C97.0686 111.627 97.8686 108.8 96.6953 103.573L92.9086 87.2C91.8953 82.7734 93.5486 77.0667 96.7486 73.8134L109.975 60.5867C112.589 57.9734 113.762 55.4134 113.229 53.6534C112.642 51.8934 110.189 50.4534 106.562 49.8667L89.5486 47.04C85.4419 46.3467 80.9619 43.04 79.0953 39.3067L69.7086 20.5334C68.0019 17.12 65.8686 15.0934 64.0019 15.0934C62.1353 15.0934 60.0019 17.12 58.3486 20.5334L48.9086 39.3067C47.0419 43.04 42.5619 46.3467 38.4553 47.04L21.4953 49.8667C17.8686 50.4534 15.4153 51.8934 14.8286 53.6534C14.2419 55.4134 15.4686 58.0267 18.0819 60.5867L31.3086 73.8134C34.5086 77.0134 36.1619 82.7734 35.1486 87.2L31.3619 103.573C30.1353 108.853 30.9886 111.627 32.1086 112.427C33.2286 113.227 36.1086 113.173 40.8019 110.453L56.7486 101.013C58.7753 99.7867 61.3886 99.1467 64.0019 99.1467Z" fill="#F2C85B"></path>
</svg>