<svg width="128" height="128" viewBox="0 0 128 128" fill="none" xmlns="http://www.w3.org/2000/svg">
<path d="M86.348 10.667H41.6546C22.2413 10.667 10.668 22.2403 10.668 41.6537V86.347C10.668 105.76 22.2413 117.334 41.6546 117.334H86.348C105.761 117.334 117.335 105.76 117.335 86.347V41.6537C117.335 22.2403 105.761 10.667 86.348 10.667ZM53.1746 79.467L41.1746 91.467C40.3746 92.267 39.3613 92.6403 38.348 92.6403C37.3346 92.6403 36.268 92.267 35.5213 91.467L31.5213 87.467C29.9213 85.9203 29.9213 83.3603 31.5213 81.8137C33.068 80.267 35.5746 80.267 37.1746 81.8137L38.348 82.987L47.5213 73.8137C49.068 72.267 51.5746 72.267 53.1746 73.8137C54.7213 75.3603 54.7213 77.9203 53.1746 79.467ZM53.1746 42.1337L41.1746 54.1337C40.3746 54.9337 39.3613 55.307 38.348 55.307C37.3346 55.307 36.268 54.9337 35.5213 54.1337L31.5213 50.1337C29.9213 48.587 29.9213 46.027 31.5213 44.4803C33.068 42.9337 35.5746 42.9337 37.1746 44.4803L38.348 45.6537L47.5213 36.4803C49.068 34.9337 51.5746 34.9337 53.1746 36.4803C54.7213 38.027 54.7213 40.587 53.1746 42.1337ZM93.6546 88.6403H65.6546C63.468 88.6403 61.6546 86.827 61.6546 84.6403C61.6546 82.4537 63.468 80.6403 65.6546 80.6403H93.6546C95.8946 80.6403 97.6546 82.4537 97.6546 84.6403C97.6546 86.827 95.8946 88.6403 93.6546 88.6403ZM93.6546 51.307H65.6546C63.468 51.307 61.6546 49.4937 61.6546 47.307C61.6546 45.1203 63.468 43.307 65.6546 43.307H93.6546C95.8946 43.307 97.6546 45.1203 97.6546 47.307C97.6546 49.4937 95.8946 51.307 93.6546 51.307Z" fill="#117CB2"></path>
</svg>