<svg width="535" height="535" viewBox="0 0 535 535" fill="none" xmlns="http://www.w3.org/2000/svg">
<path d="M250.781 406.823H200.625C176.104 406.823 156.042 426.885 156.042 451.406V456.979H133.75C124.61 456.979 117.031 464.558 117.031 473.698C117.031 482.837 124.61 490.417 133.75 490.417H401.25C410.39 490.417 417.969 482.837 417.969 473.698C417.969 464.558 410.39 456.979 401.25 456.979H378.958V451.406C378.958 426.885 358.896 406.823 334.375 406.823H284.219V355.775C278.646 356.444 273.073 356.667 267.5 356.667C261.927 356.667 256.354 356.444 250.781 355.775V406.823Z" fill="#E7BF58"></path>
<path d="M411.95 259.475C426.663 253.902 439.592 244.762 449.846 234.508C470.577 211.548 484.175 184.129 484.175 152.029C484.175 119.929 458.986 94.7395 426.886 94.7395H414.402C399.913 65.0916 369.596 44.5833 334.375 44.5833H200.625C165.404 44.5833 135.088 65.0916 120.598 94.7395H108.115C76.0148 94.7395 50.8252 119.929 50.8252 152.029C50.8252 184.129 64.4231 211.548 85.1544 234.508C95.4085 244.762 108.338 253.902 123.05 259.475C146.234 316.542 201.963 356.667 267.5 356.667C333.038 356.667 388.767 316.542 411.95 259.475ZM330.809 188.365L316.988 205.306C314.759 207.758 313.198 212.662 313.421 216.006L314.759 237.852C315.65 251.227 306.065 258.137 293.581 253.233L273.296 245.208C270.175 244.094 264.825 244.094 261.704 245.208L241.419 253.233C228.936 258.137 219.35 251.227 220.242 237.852L221.579 216.006C221.802 212.662 220.242 207.758 218.013 205.306L204.192 188.365C195.498 178.11 199.288 166.742 212.217 163.398L233.394 158.048C236.738 157.156 240.75 154.035 242.534 151.137L254.348 132.858C261.704 121.49 273.296 121.49 280.652 132.858L292.467 151.137C294.25 154.035 298.263 157.156 301.606 158.048L322.784 163.398C335.713 166.742 339.502 178.11 330.809 188.365Z" fill="#E7BF58"></path>
</svg>