<svg width="512" height="512" viewBox="0 0 512 512" fill="none" xmlns="http://www.w3.org/2000/svg">
<path d="M457.6 290.987V312.32C457.6 318.08 453.12 322.773 447.147 322.987H416C404.694 322.987 394.454 314.667 393.6 303.573C392.96 296.96 395.52 290.773 399.787 286.507C403.627 282.453 408.96 280.32 414.72 280.32H446.934C453.12 280.533 457.6 285.227 457.6 290.987Z" fill="white"></path>
<path d="M383.787 270.72C373.12 281.173 368 296.747 372.267 312.96C377.813 332.8 397.227 345.387 417.707 345.387H436.267C448 345.387 457.6 354.987 457.6 366.72V370.773C457.6 414.933 421.547 450.987 377.387 450.987H132.48C88.3199 450.987 52.2666 414.933 52.2666 370.773V227.2C52.2666 200.96 64.8533 177.707 84.2666 163.2C97.7066 152.96 114.347 146.987 132.48 146.987H377.387C421.547 146.987 457.6 183.04 457.6 227.2V236.587C457.6 248.32 448 257.92 436.267 257.92H414.507C402.56 257.92 391.68 262.613 383.787 270.72Z" fill="white"></path>
<path d="M345.6 102.827C351.36 108.587 346.453 117.547 338.346 117.547L174.506 117.333C165.12 117.333 160.213 105.813 167.04 99.2L201.6 64.4266C230.826 35.4133 278.186 35.4133 307.413 64.4266L344.746 102.187C344.96 102.4 345.386 102.613 345.6 102.827Z" fill="white"></path>
</svg>